<svg width="16" height="16" viewBox="0 0 16 16" fill="none" xmlns="http://www.w3.org/2000/svg">
<circle cx="8" cy="8" r="8" fill="#FF165D"/>
<path d="M4 7.41231C4 7.1846 4.16333 7 4.3648 7C4.56627 7 4.7296 7.1846 4.7296 7.41231V13.5877C4.7296 13.8154 4.56627 14 4.3648 14C4.16333 14 4 13.8154 4 13.5877V7.41231Z" fill="white"/>
<path d="M5.8176 7.41231C5.8176 7.1846 5.98093 7 6.1824 7C6.38387 7 6.5472 7.1846 6.5472 7.41231V13.5877C6.5472 13.8154 6.38387 14 6.1824 14C5.98093 14 5.8176 13.8154 5.8176 13.5877V7.41231Z" fill="white"/>
<path d="M7.6352 7.41231C7.6352 7.1846 7.79853 7 8 7C8.20147 7 8.3648 7.1846 8.3648 7.41231V13.5877C8.3648 13.8154 8.20147 14 8 14C7.79853 14 7.6352 13.8154 7.6352 13.5877V7.41231Z" fill="white"/>
<path d="M9.4528 7.41231C9.4528 7.1846 9.61613 7 9.8176 7C10.0191 7 10.1824 7.1846 10.1824 7.41231V13.5877C10.1824 13.8154 10.0191 14 9.8176 14C9.61613 14 9.4528 13.8154 9.4528 13.5877V7.41231Z" fill="white"/>
<path d="M11.2704 7.41231C11.2704 7.1846 11.4337 7 11.6352 7C11.8367 7 12 7.1846 12 7.41231V13.5877C12 13.8154 11.8367 14 11.6352 14C11.4337 14 11.2704 13.8154 11.2704 13.5877V7.41231Z" fill="white"/>
<path d="M3.41439 6C3.19734 6 3.02138 5.8126 3.02138 5.58142C3.02138 5.35024 3.19734 5.16284 3.41439 5.16284L13.607 5.16284C13.824 5.16284 14 5.35024 14 5.58142C14 5.81259 13.824 6 13.607 6L3.41439 6Z" fill="white"/>
<path d="M3.41439 3.83716C3.19734 3.83716 3.02138 3.64976 3.02138 3.41858C3.02138 3.18741 3.19734 3 3.41439 3L13.607 3C13.824 3 14 3.18741 14 3.41858C14 3.64976 13.824 3.83716 13.607 3.83716L3.41439 3.83716Z" fill="white"/>
<path d="M3.38417 6C3.01707 6 2.665 5.84196 2.40541 5.56066C2.14583 5.27936 2 4.89782 2 4.5C2 4.10218 2.14583 3.72064 2.40541 3.43934C2.665 3.15804 3.01707 3 3.38417 3V3.81904C3.21751 3.81904 3.05768 3.89079 2.93984 4.01849C2.822 4.14619 2.7558 4.3194 2.7558 4.5C2.7558 4.6806 2.822 4.85381 2.93984 4.98151C3.05768 5.10921 3.21751 5.18096 3.38417 5.18096V6Z" fill="white"/>
</svg>
