<svg width="68" height="64" viewBox="0 0 68 64" fill="none" xmlns="http://www.w3.org/2000/svg">
<path fill-rule="evenodd" clip-rule="evenodd" d="M25.667 33.8458C34.8489 33.8458 42.2091 26.3903 42.2091 17.0896C42.2091 7.78893 34.8489 0.333496 25.667 0.333496C16.4851 0.333496 9.12493 7.78893 9.12493 17.0896C9.12493 26.3903 16.4851 33.8458 25.667 33.8458ZM25.667 42.0508C12.1811 42.0508 0.666992 44.207 0.666992 52.8216C0.666992 61.4329 12.111 63.6668 25.667 63.6668C39.1496 63.6668 50.667 61.5106 50.667 52.896C50.667 44.2813 39.223 42.0508 25.667 42.0508ZM60.3267 23.9597H64.337C65.9877 23.9597 67.3336 25.3246 67.3336 26.9985C67.3336 28.6724 65.9877 30.0372 64.337 30.0372H60.3267V33.9615C60.3267 35.6354 58.9843 37.0002 57.3302 37.0002C55.6795 37.0002 54.3336 35.6354 54.3336 33.9615V30.0372H50.3302C48.676 30.0372 47.3336 28.6724 47.3336 26.9985C47.3336 25.3246 48.676 23.9597 50.3302 23.9597H54.3336V20.0389C54.3336 18.365 55.6795 17.0002 57.3302 17.0002C58.9843 17.0002 60.3267 18.365 60.3267 20.0389V23.9597Z" fill="#FF165D"/>
</svg>
