<svg width="14" height="17" viewBox="0 0 14 17" fill="none" xmlns="http://www.w3.org/2000/svg">
<path d="M0.75 6.13796C0.75 2.78066 3.56169 0.0830078 7 0.0830078C10.4383 0.0830078 13.25 2.78066 13.25 6.13796C13.25 8.0996 12.4391 9.86943 10.9209 10.9856C10.8161 11.0626 10.7527 11.1582 10.7306 11.252C10.6817 11.4598 10.6275 11.7005 10.572 11.9588C10.5555 12.0358 10.4875 12.091 10.4088 12.091H7.79167C7.69962 12.091 7.625 12.0163 7.625 11.9243V11.371L8.49944 9.99755C8.672 9.72652 8.61094 9.3688 8.35824 9.17035L6.85904 7.99297L7.52722 6.94348C7.7126 6.65231 7.62684 6.26599 7.33567 6.08061C7.04449 5.89522 6.65817 5.98099 6.47279 6.27216L5.50056 7.79919C5.328 8.07023 5.38906 8.42795 5.64176 8.6264L7.14097 9.80377L6.47279 10.8533C6.40892 10.9536 6.375 11.07 6.375 11.1889V11.9243C6.375 12.0163 6.30038 12.091 6.20833 12.091H3.59124C3.5125 12.091 3.44453 12.0358 3.42799 11.9588C3.37247 11.7005 3.31832 11.4598 3.26938 11.252C3.24729 11.1582 3.18387 11.0626 3.07908 10.9856C1.56094 9.86943 0.75 8.0996 0.75 6.13796Z" fill="white"/>
<path d="M3.90085 13.341C3.79703 13.341 3.71852 13.4349 3.73617 13.5372C3.823 14.0405 3.88715 14.4933 3.90568 14.7996C3.95818 15.6673 4.59726 16.382 5.45186 16.5666L5.61517 16.6019C6.52718 16.7989 7.47282 16.7989 8.38483 16.6019L8.54814 16.5666C9.40274 16.382 10.0418 15.6673 10.0943 14.7996C10.1128 14.4933 10.177 14.0405 10.2638 13.5372C10.2815 13.4349 10.203 13.341 10.0992 13.341H3.90085Z" fill="white"/>
</svg>
