<svg width="14" height="17" viewBox="0 0 14 17" fill="none" xmlns="http://www.w3.org/2000/svg">
<path d="M0.75 6.13828C0.75 2.78098 3.56169 0.0833282 7 0.0833282C10.4383 0.0833282 13.25 2.78098 13.25 6.13828C13.25 8.09993 12.4391 9.86975 10.9209 10.9859C10.8161 11.063 10.7527 11.1585 10.7306 11.2523C10.6817 11.4601 10.6275 11.7008 10.572 11.9592C10.5555 12.0361 10.4875 12.0913 10.4088 12.0913H7.79167C7.69962 12.0913 7.625 12.0167 7.625 11.9246V11.3713L8.49944 9.99787C8.672 9.72684 8.61094 9.36912 8.35824 9.17067L6.85904 7.99329L7.52722 6.9438C7.7126 6.65263 7.62684 6.26631 7.33567 6.08093C7.04449 5.89555 6.65817 5.98131 6.47279 6.27248L5.50056 7.79951C5.328 8.07055 5.38906 8.42827 5.64176 8.62672L7.14097 9.8041L6.47279 10.8536C6.40892 10.9539 6.375 11.0703 6.375 11.1892V11.9246C6.375 12.0167 6.30038 12.0913 6.20833 12.0913H3.59124C3.5125 12.0913 3.44453 12.0361 3.42799 11.9592C3.37247 11.7008 3.31832 11.4601 3.26938 11.2523C3.24729 11.1585 3.18387 11.063 3.07908 10.9859C1.56094 9.86975 0.75 8.09993 0.75 6.13828Z" fill="#FF165D"/>
<path d="M3.90085 13.3413C3.79703 13.3413 3.71852 13.4352 3.73617 13.5375C3.823 14.0409 3.88715 14.4937 3.90568 14.7999C3.95818 15.6676 4.59726 16.3823 5.45186 16.5669L5.61517 16.6022C6.52718 16.7993 7.47282 16.7993 8.38483 16.6022L8.54814 16.5669C9.40274 16.3823 10.0418 15.6676 10.0943 14.7999C10.1128 14.4937 10.177 14.0409 10.2638 13.5375C10.2815 13.4352 10.203 13.3413 10.0992 13.3413H3.90085Z" fill="#FF165D"/>
</svg>
