<svg width="16" height="18" viewBox="0 0 16 18" fill="none" xmlns="http://www.w3.org/2000/svg">
<path fill-rule="evenodd" clip-rule="evenodd" d="M11.6757 1.30719L11.6766 1.93187C13.9721 2.11178 15.4885 3.676 15.4909 6.0748L15.5 13.0963C15.5033 15.7116 13.8602 17.3208 11.2265 17.325L4.79324 17.3333C2.17599 17.3367 0.512347 15.6891 0.509056 13.0663L0.500006 6.12727C0.496714 3.71265 1.95961 2.1526 4.25514 1.94187L4.25432 1.31718C4.2535 0.950698 4.52501 0.675003 4.88703 0.675003C5.24905 0.67417 5.52057 0.949032 5.52139 1.31552L5.52221 1.89856L10.4095 1.89189L10.4087 1.30885C10.4078 0.942369 10.6794 0.667507 11.0414 0.666674C11.3952 0.665841 11.6749 0.940703 11.6757 1.30719ZM1.7679 6.38461L14.2247 6.36795V6.07643C14.1893 4.28566 13.2908 3.34613 11.6782 3.2062L11.679 3.84755C11.679 4.2057 11.4001 4.48972 11.0463 4.48972C10.6843 4.49056 10.412 4.20737 10.412 3.84921L10.4111 3.17455L5.52386 3.18121L5.52468 3.85504C5.52468 4.21403 5.25399 4.49722 4.89197 4.49722C4.52995 4.49805 4.25761 4.21569 4.25761 3.85671L4.25679 3.21536C2.65238 3.37612 1.76461 4.31898 1.76708 6.12557L1.7679 6.38461ZM10.6999 10.1701V10.1793C10.7081 10.5624 11.0208 10.8531 11.4001 10.8448C11.7703 10.8356 12.0657 10.5183 12.0575 10.1351C12.0402 9.76865 11.7432 9.46964 11.3738 9.47047C10.9953 9.4788 10.6991 9.78698 10.6999 10.1701ZM11.3796 13.9099C11.0011 13.9016 10.6958 13.5859 10.695 13.2027C10.6868 12.8196 10.9904 12.5023 11.3689 12.4931H11.3771C11.7638 12.4931 12.0773 12.8088 12.0773 13.2002C12.0781 13.5917 11.7654 13.9091 11.3796 13.9099ZM7.3101 10.1836C7.32656 10.5668 7.64004 10.8658 8.01851 10.8491C8.38876 10.8317 8.68413 10.5151 8.66768 10.132C8.65863 9.75719 8.3542 9.46567 7.98395 9.4665C7.60548 9.48316 7.30928 9.8005 7.3101 10.1836ZM8.02181 13.8726C7.64333 13.8892 7.33068 13.5902 7.3134 13.2071C7.3134 12.8239 7.60878 12.5074 7.98725 12.4899C8.3575 12.4891 8.66275 12.7806 8.67097 13.1546C8.68825 13.5386 8.39206 13.8551 8.02181 13.8726ZM3.92033 10.2127C3.93678 10.5958 4.25026 10.8956 4.62874 10.8782C4.99898 10.8615 5.29436 10.5442 5.27708 10.161C5.26885 9.7862 4.96443 9.49468 4.59336 9.49552C4.21488 9.51217 3.91951 9.82952 3.92033 10.2127ZM4.63195 13.8767C4.25348 13.8942 3.94082 13.5944 3.92355 13.2112C3.92272 12.8281 4.21892 12.5107 4.5974 12.4941C4.96765 12.4932 5.27289 12.7848 5.28112 13.1596C5.2984 13.5427 5.00302 13.8601 4.63195 13.8767Z" fill="#FF165D"/>
</svg>
