<svg width="16" height="18" viewBox="0 0 16 18" fill="none" xmlns="http://www.w3.org/2000/svg">
<path fill-rule="evenodd" clip-rule="evenodd" d="M11.6757 1.30751L11.6766 1.93219C13.9721 2.1121 15.4885 3.67632 15.4909 6.07512L15.5 13.0966C15.5033 15.712 13.8602 17.3212 11.2265 17.3253L4.79324 17.3336C2.17599 17.337 0.512347 15.6895 0.509056 13.0666L0.500006 6.12759C0.496714 3.71297 1.95961 2.15292 4.25514 1.94219L4.25432 1.3175C4.2535 0.951018 4.52501 0.675323 4.88703 0.675323C5.24905 0.67449 5.52057 0.949353 5.52139 1.31584L5.52221 1.89888L10.4095 1.89221L10.4087 1.30917C10.4078 0.942689 10.6794 0.667827 11.0414 0.666994C11.3952 0.666161 11.6749 0.941023 11.6757 1.30751ZM1.7679 6.38493L14.2247 6.36827V6.07675C14.1893 4.28598 13.2908 3.34645 11.6782 3.20652L11.679 3.84787C11.679 4.20602 11.4001 4.49004 11.0463 4.49004C10.6843 4.49088 10.412 4.20769 10.412 3.84953L10.4111 3.17487L5.52386 3.18153L5.52468 3.85536C5.52468 4.21435 5.25399 4.49754 4.89197 4.49754C4.52995 4.49837 4.25761 4.21602 4.25761 3.85703L4.25679 3.21568C2.65238 3.37644 1.76461 4.3193 1.76708 6.12589L1.7679 6.38493ZM10.6999 10.1704V10.1796C10.7081 10.5627 11.0208 10.8534 11.4001 10.8451C11.7703 10.8359 12.0657 10.5186 12.0575 10.1355C12.0402 9.76897 11.7432 9.46996 11.3738 9.47079C10.9953 9.47912 10.6991 9.7873 10.6999 10.1704ZM11.3796 13.9102C11.0011 13.9019 10.6958 13.5862 10.695 13.2031C10.6868 12.8199 10.9904 12.5026 11.3689 12.4934H11.3771C11.7638 12.4934 12.0773 12.8091 12.0773 13.2006C12.0781 13.592 11.7654 13.9094 11.3796 13.9102ZM7.3101 10.184C7.32656 10.5671 7.64004 10.8661 8.01851 10.8495C8.38876 10.832 8.68413 10.5155 8.66768 10.1323C8.65863 9.75751 8.3542 9.46599 7.98395 9.46682C7.60548 9.48348 7.30928 9.80082 7.3101 10.184ZM8.02181 13.8729C7.64333 13.8896 7.33068 13.5905 7.3134 13.2074C7.3134 12.8243 7.60878 12.5077 7.98725 12.4903C8.3575 12.4894 8.66275 12.7809 8.67098 13.1549C8.68825 13.5389 8.39206 13.8554 8.02181 13.8729ZM3.92033 10.213C3.93678 10.5961 4.25026 10.896 4.62874 10.8785C4.99898 10.8618 5.29436 10.5445 5.27708 10.1613C5.26885 9.78652 4.96443 9.495 4.59336 9.49584C4.21488 9.5125 3.91951 9.82984 3.92033 10.213ZM4.63195 13.877C4.25348 13.8945 3.94082 13.5947 3.92355 13.2115C3.92272 12.8284 4.21892 12.5111 4.5974 12.4944C4.96765 12.4936 5.27289 12.7851 5.28112 13.1599C5.2984 13.543 5.00302 13.8604 4.63195 13.877Z" fill="white"/>
</svg>
