<svg width="68" height="68" viewBox="0 0 68 68" fill="none" xmlns="http://www.w3.org/2000/svg">
<path fill-rule="evenodd" clip-rule="evenodd" d="M0.666992 34.0499C0.666992 16.4902 14.7003 0.666504 34.067 0.666504C53.0003 0.666504 67.3337 16.1898 67.3337 33.9498C67.3337 54.5473 50.5337 67.3332 34.0003 67.3332C28.5337 67.3332 22.467 65.8643 17.6003 62.9933C15.9003 61.9584 14.467 61.1906 12.6337 61.7915L5.90033 63.7945C4.20033 64.3287 2.66699 62.9933 3.16699 61.1906L5.40033 53.7127C5.76699 52.6779 5.70033 51.5762 5.16699 50.7082C2.30033 45.4337 0.666992 39.6583 0.666992 34.0499ZM29.667 34.05C29.667 36.4202 31.567 38.323 33.9336 38.3564C36.3003 38.3564 38.2003 36.4202 38.2003 34.0833C38.2003 31.7131 36.3003 29.8103 33.9336 29.8103C31.6003 29.7769 29.667 31.7131 29.667 34.05ZM45.0337 34.0834C45.0337 36.4202 46.9337 38.3564 49.3004 38.3564C51.667 38.3564 53.567 36.4202 53.567 34.0834C53.567 31.7131 51.667 29.8103 49.3004 29.8103C46.9337 29.8103 45.0337 31.7131 45.0337 34.0834ZM18.567 38.3564C16.2337 38.3564 14.3004 36.4202 14.3004 34.0834C14.3004 31.7131 16.2004 29.8103 18.567 29.8103C20.9337 29.8103 22.8337 31.7131 22.8337 34.0834C22.8337 36.4202 20.9337 38.3231 18.567 38.3564Z" fill="#FF165D"/>
</svg>
