<svg width="20" height="20" viewBox="0 0 20 20" fill="none" xmlns="http://www.w3.org/2000/svg">
<g id="checkbox / 03">
<g id="Tick Square">
<g id="Tick Square_2">
<path d="M13.617 1.6666H6.39199C3.56699 1.6666 1.66699 3.64993 1.66699 6.59993V13.4091C1.66699 16.3499 3.56699 18.3333 6.39199 18.3333H13.617C16.442 18.3333 18.3337 16.3499 18.3337 13.4091V6.59993C18.3337 3.64993 16.442 1.6666 13.617 1.6666" fill="white"/>
<path d="M13.617 0.666595H6.39199V2.6666H13.617V0.666595ZM6.39199 0.666595C4.73671 0.666595 3.28443 1.25319 2.24795 2.3353C1.21505 3.41367 0.666992 4.90816 0.666992 6.59993H2.66699C2.66699 5.3417 3.06893 4.36953 3.69229 3.71873C4.31206 3.07167 5.22227 2.6666 6.39199 2.6666V0.666595ZM0.666992 6.59993V13.4091H2.66699V6.59993H0.666992ZM0.666992 13.4091C0.666992 15.0971 1.21555 16.5893 2.24841 17.6662C3.28476 18.7467 4.73676 19.3333 6.39199 19.3333V17.3333C5.22222 17.3333 4.31173 16.9281 3.69183 16.2818C3.06844 15.6318 2.66699 14.662 2.66699 13.4091H0.666992ZM6.39199 19.3333H13.617V17.3333H6.39199V19.3333ZM13.617 19.3333C15.2724 19.3333 16.7228 18.7466 17.7573 17.6653C18.788 16.5879 19.3337 15.0959 19.3337 13.4091H17.3337C17.3337 14.6632 16.9335 15.6332 16.3121 16.2827C15.6945 16.9283 14.7866 17.3333 13.617 17.3333V19.3333ZM19.3337 13.4091V6.59993H17.3337V13.4091H19.3337ZM19.3337 6.59993C19.3337 4.90938 18.7884 3.41501 17.7577 2.33621C16.7232 1.25335 15.2725 0.666595 13.617 0.666595V2.6666C14.7865 2.6666 15.6942 3.0715 16.3117 3.71782C16.933 4.36818 17.3337 5.34048 17.3337 6.59993H19.3337Z" fill="#3EC1D3"/>
</g>
</g>
</g>
</svg>
