<svg width="18" height="18" viewBox="0 0 18 18" fill="none" xmlns="http://www.w3.org/2000/svg">
<path fill-rule="evenodd" clip-rule="evenodd" d="M8.99996 17.3334C4.39996 17.3334 0.666626 13.6084 0.666626 9.00008C0.666626 4.40008 4.39996 0.666748 8.99996 0.666748C13.6083 0.666748 17.3333 4.40008 17.3333 9.00008C17.3333 13.6084 13.6083 17.3334 8.99996 17.3334ZM11.6583 12.0919C11.7583 12.1503 11.8666 12.1836 11.9833 12.1836C12.1916 12.1836 12.3999 12.0753 12.5166 11.8753C12.6916 11.5836 12.5999 11.2003 12.2999 11.0169L9.33327 9.25027V5.40027C9.33327 5.05027 9.04993 4.77527 8.70827 4.77527C8.3666 4.77527 8.08327 5.05027 8.08327 5.40027V9.6086C8.08327 9.82527 8.19993 10.0253 8.3916 10.1419L11.6583 12.0919Z" fill="#FF165D"/>
</svg>
