<svg width="18" height="18" viewBox="0 0 18 18" fill="none" xmlns="http://www.w3.org/2000/svg">
<path fill-rule="evenodd" clip-rule="evenodd" d="M8.99996 17.3337C4.39996 17.3337 0.666626 13.6087 0.666626 9.00033C0.666626 4.40033 4.39996 0.666992 8.99996 0.666992C13.6083 0.666992 17.3333 4.40033 17.3333 9.00033C17.3333 13.6087 13.6083 17.3337 8.99996 17.3337ZM11.6583 12.0922C11.7583 12.1505 11.8666 12.1838 11.9833 12.1838C12.1916 12.1838 12.3999 12.0755 12.5166 11.8755C12.6916 11.5838 12.5999 11.2005 12.2999 11.0172L9.33327 9.25051V5.40051C9.33327 5.05051 9.04993 4.77551 8.70827 4.77551C8.3666 4.77551 8.08327 5.05051 8.08327 5.40051V9.60885C8.08327 9.82551 8.19993 10.0255 8.3916 10.1422L11.6583 12.0922Z" fill="white"/>
</svg>
