<svg width="18" height="18" viewBox="0 0 18 18" fill="none" xmlns="http://www.w3.org/2000/svg">
<path fill-rule="evenodd" clip-rule="evenodd" d="M9.00033 17.3337C4.40033 17.3337 0.666992 13.6087 0.666992 9.00033C0.666992 4.40033 4.40033 0.666992 9.00033 0.666992C13.6087 0.666992 17.3337 4.40033 17.3337 9.00033C17.3337 13.6087 13.6087 17.3337 9.00033 17.3337ZM11.6587 12.092C11.7587 12.1504 11.867 12.1837 11.9837 12.1837C12.192 12.1837 12.4003 12.0754 12.517 11.8754C12.692 11.5837 12.6003 11.2004 12.3003 11.017L9.33367 9.25038V5.40038C9.33367 5.05038 9.05034 4.77538 8.70867 4.77538C8.36701 4.77538 8.08367 5.05038 8.08367 5.40038V9.60871C8.08367 9.82538 8.20034 10.0254 8.39201 10.142L11.6587 12.092Z" fill="#3EC1D3"/>
</svg>
