<svg width="10" height="10" viewBox="0 0 10 10" fill="none" xmlns="http://www.w3.org/2000/svg">
<path d="M9.06585 1.99479C9.35875 1.7019 9.35875 1.22703 9.06585 0.934132C8.77296 0.641239 8.29809 0.641239 8.00519 0.934132L4.99999 3.93933L1.99479 0.934133C1.7019 0.64124 1.22703 0.641239 0.934134 0.934133C0.641241 1.22703 0.641241 1.7019 0.934134 1.99479L3.93933 4.99999L0.934124 8.0052C0.641232 8.29809 0.641231 8.77297 0.934124 9.06586C1.22702 9.35875 1.70189 9.35875 1.99478 9.06586L4.99999 6.06065L8.0052 9.06586C8.29809 9.35875 8.77297 9.35875 9.06586 9.06586C9.35875 8.77297 9.35875 8.29809 9.06586 8.0052L6.06065 4.99999L9.06585 1.99479Z" fill="black"/>
</svg>
