<svg width="12" height="16" viewBox="0 0 12 16" fill="none" xmlns="http://www.w3.org/2000/svg">
  <path d="M9.44242 0.654695C7.16747 0.273305 4.83263 0.273305 2.55767 0.654695C1.72655 0.79403 1.06467 1.43209 0.898021 2.2594C0.134588 6.04947 0.0929328 9.94954 0.775241 13.7551L1.05303 15.3044C1.13869 15.7822 1.72111 15.9731 2.07299 15.6388L5.42609 12.4534C5.74773 12.1478 6.25237 12.1478 6.57401 12.4534L9.9271 15.6388C10.279 15.9731 10.8614 15.7822 10.9471 15.3044L11.2249 13.7551C11.9072 9.94954 11.8655 6.04947 11.1021 2.2594C10.9354 1.43209 10.2735 0.79403 9.44242 0.654695Z" fill="#FF165D"/>
</svg>
