<svg width="60" height="60" viewBox="0 0 60 60" fill="none" xmlns="http://www.w3.org/2000/svg">
<path fill-rule="evenodd" clip-rule="evenodd" d="M21.2547 56.7597L50.5426 18.8848C52.1343 16.8423 52.7003 14.481 52.1697 12.0766C51.7099 9.89085 50.3657 7.81257 48.3495 6.23595L43.4328 2.33021C39.1528 -1.07387 33.8471 -0.715544 30.8051 3.19019L27.5155 7.45783C27.091 7.99174 27.1971 8.78005 27.7277 9.21004C27.7277 9.21004 36.0401 15.8749 36.217 16.0182C36.7829 16.5557 37.2074 17.2723 37.3135 18.1323C37.4904 19.8164 36.3231 21.3931 34.5899 21.6081C33.7763 21.7156 32.9981 21.4647 32.4322 20.9989L23.6953 14.0474C23.2709 13.7285 22.6342 13.7966 22.2804 14.2266L1.51713 41.1009C0.172995 42.785 -0.28684 44.9708 0.172995 47.0849L2.82589 58.5871C2.96738 59.1963 3.49796 59.6263 4.13465 59.6263L15.8074 59.4829C17.9297 59.4471 19.9105 58.4796 21.2547 56.7597ZM37.5989 53.1775H56.6325C58.4895 53.1775 59.9999 54.7075 59.9999 56.5887C59.9999 58.4735 58.4895 60 56.6325 60H37.5989C35.7418 60 34.2315 58.4735 34.2315 56.5887C34.2315 54.7075 35.7418 53.1775 37.5989 53.1775Z" fill="#FF165D"/>
</svg>
