<svg width="20" height="20" viewBox="0 0 20 20" fill="white" xmlns="http://www.w3.org/2000/svg">
<path d="M9.99991 7.29179C8.50414 7.29179 7.29157 8.50435 7.29157 10.0001C7.29157 11.4959 8.50414 12.7085 9.99991 12.7085C11.4957 12.7085 12.7082 11.4959 12.7082 10.0001C12.7082 8.50435 11.4957 7.29179 9.99991 7.29179Z"/>
<path fill-rule="evenodd" clip-rule="evenodd" d="M5.64119 2.56801C8.51462 2.24686 11.4852 2.24686 14.3586 2.56801C15.9406 2.74482 17.2166 3.9913 17.4023 5.57885C17.7459 8.51635 17.7459 11.4839 17.4023 14.4214C17.2166 16.0089 15.9406 17.2554 14.3586 17.4322C11.4852 17.7534 8.51462 17.7534 5.64119 17.4322C4.05919 17.2554 2.7832 16.0089 2.59752 14.4214C2.25395 11.4839 2.25395 8.51635 2.59752 5.57885C2.7832 3.9913 4.05919 2.74482 5.64119 2.56801ZM14.1666 5.00012C13.7063 5.00012 13.3332 5.37322 13.3332 5.83345C13.3332 6.29369 13.7063 6.66679 14.1666 6.66679C14.6268 6.66679 14.9999 6.29369 14.9999 5.83345C14.9999 5.37322 14.6268 5.00012 14.1666 5.00012ZM6.04158 10.0001C6.04158 7.81399 7.81378 6.04179 9.99991 6.04179C12.186 6.04179 13.9582 7.81399 13.9582 10.0001C13.9582 12.1862 12.186 13.9585 9.99991 13.9585C7.81378 13.9585 6.04158 12.1862 6.04158 10.0001Z"/>
</svg>
