<svg width="16" height="16" viewBox="0 0 16 16" fill="none" xmlns="http://www.w3.org/2000/svg">
<path d="M8.00009 5.39609C6.5665 5.39609 5.39658 6.56601 5.39658 7.9996C5.39658 9.4332 6.5665 10.6031 8.00009 10.6031C9.43369 10.6031 10.6036 9.4332 10.6036 7.9996C10.6036 6.56601 9.43369 5.39609 8.00009 5.39609ZM15.8087 7.9996C15.8087 6.92148 15.8185 5.85312 15.7579 4.77695C15.6974 3.52695 15.4122 2.41757 14.4981 1.50351C13.5821 0.587495 12.4747 0.304292 11.2247 0.243745C10.1466 0.183198 9.07822 0.192964 8.00205 0.192964C6.92392 0.192964 5.85556 0.183198 4.77939 0.243745C3.52939 0.304292 2.42001 0.589448 1.50595 1.50351C0.589936 2.41953 0.306733 3.52695 0.246186 4.77695C0.18564 5.85507 0.195405 6.92343 0.195405 7.9996C0.195405 9.07578 0.18564 10.1461 0.246186 11.2223C0.306733 12.4723 0.59189 13.5816 1.50595 14.4957C2.42197 15.4117 3.52939 15.6949 4.77939 15.7555C5.85752 15.816 6.92587 15.8062 8.00205 15.8062C9.08017 15.8062 10.1485 15.816 11.2247 15.7555C12.4747 15.6949 13.5841 15.4098 14.4981 14.4957C15.4142 13.5797 15.6974 12.4723 15.7579 11.2223C15.8204 10.1461 15.8087 9.07773 15.8087 7.9996ZM8.00009 12.0055C5.7833 12.0055 3.99423 10.2164 3.99423 7.9996C3.99423 5.78281 5.7833 3.99374 8.00009 3.99374C10.2169 3.99374 12.006 5.78281 12.006 7.9996C12.006 10.2164 10.2169 12.0055 8.00009 12.0055ZM12.17 4.76523C11.6524 4.76523 11.2345 4.34726 11.2345 3.82968C11.2345 3.3121 11.6524 2.89414 12.17 2.89414C12.6876 2.89414 13.1056 3.3121 13.1056 3.82968C13.1057 3.95258 13.0816 4.07431 13.0347 4.18788C12.9877 4.30146 12.9188 4.40465 12.8319 4.49156C12.745 4.57846 12.6418 4.64737 12.5282 4.69433C12.4146 4.74129 12.2929 4.76538 12.17 4.76523Z" fill="white"/>
</svg>
