<svg width="15" height="14" viewBox="0 0 15 14" fill="none" xmlns="http://www.w3.org/2000/svg">
<path d="M7.37496 12.8337C7.37496 12.4885 7.65478 12.2087 7.99996 12.2087H13C13.115 12.2087 13.2083 12.1154 13.2083 12.0003L13.2083 2.00033C13.2083 1.88527 13.115 1.79199 13 1.79199L7.99996 1.79199C7.65478 1.79199 7.37496 1.51217 7.37496 1.16699C7.37496 0.821815 7.65478 0.541992 7.99996 0.541992H13C13.8054 0.541992 14.4583 1.19491 14.4583 2.00033V12.0003C14.4583 12.8057 13.8054 13.4587 13 13.4587H7.99996C7.65478 13.4587 7.37496 13.1788 7.37496 12.8337Z" fill="#FF165D"/>
<path d="M0.916626 7.92968C0.916626 8.38991 1.28972 8.76301 1.74996 8.76301H5.79661C5.81572 9.05919 5.83965 9.35515 5.86838 9.65075L5.89309 9.90508C5.93329 10.3186 6.37242 10.5663 6.7471 10.3867C8.27037 9.6567 9.64935 8.65772 10.8177 7.43783L10.8427 7.41176C11.0653 7.17937 11.0653 6.81288 10.8427 6.58048L10.8177 6.55441C9.64935 5.33452 8.27037 4.33554 6.7471 3.60553C6.37242 3.42597 5.93329 3.67362 5.8931 4.08716L5.86838 4.34149C5.83964 4.6371 5.81572 4.93306 5.79661 5.22925H1.74996C1.28972 5.22925 0.916626 5.60234 0.916626 6.06258V7.92968Z" fill="#FF165D"/>
</svg>
