<svg width="18" height="16" viewBox="0 0 18 16" fill="none" xmlns="http://www.w3.org/2000/svg">
<path fill-rule="evenodd" clip-rule="evenodd" d="M13.1162 0.5C14.2337 0.5 15.3087 0.941667 16.0995 1.73417C16.8912 2.525 17.3337 3.59167 17.3337 4.70833V11.2917C17.3337 13.6167 15.442 15.5 13.1162 15.5H4.88366C2.55783 15.5 0.666992 13.6167 0.666992 11.2917V4.70833C0.666992 2.38333 2.54949 0.5 4.88366 0.5H13.1162ZM14.442 5.95001L14.5087 5.88334C14.7078 5.64167 14.7078 5.29167 14.4995 5.05001C14.3837 4.92584 14.2245 4.85001 14.0587 4.83334C13.8837 4.82417 13.717 4.88334 13.5912 5.00001L9.83367 8.00001C9.35034 8.40084 8.65784 8.40084 8.167 8.00001L4.417 5.00001C4.15784 4.80834 3.7995 4.83334 3.58367 5.05834C3.35867 5.28334 3.33367 5.64167 3.5245 5.89167L3.63367 6.00001L7.42534 8.95834C7.892 9.32501 8.45784 9.52501 9.05034 9.52501C9.64117 9.52501 10.217 9.32501 10.6828 8.95834L14.442 5.95001Z" fill="#3EC1D3"/>
</svg>
