<svg width="26" height="20" viewBox="0 0 26 20" fill="none" xmlns="http://www.w3.org/2000/svg">
<path fill-rule="evenodd" clip-rule="evenodd" d="M25.9167 10.0003C25.9167 9.30997 25.3571 8.75033 24.6667 8.75033H1.33337C0.643017 8.75033 0.083374 9.30997 0.083374 10.0003C0.083374 10.6907 0.643017 11.2503 1.33337 11.2503H24.6667C25.3571 11.2503 25.9167 10.6907 25.9167 10.0003Z" fill="#252A34"/>
<path fill-rule="evenodd" clip-rule="evenodd" d="M25.9167 1.66699C25.9167 0.976636 25.3571 0.416992 24.6667 0.416992H1.33337C0.643017 0.416992 0.083374 0.976636 0.083374 1.66699C0.083374 2.35735 0.643017 2.91699 1.33337 2.91699H24.6667C25.3571 2.91699 25.9167 2.35735 25.9167 1.66699Z" fill="#252A34"/>
<path fill-rule="evenodd" clip-rule="evenodd" d="M25.9167 18.3337C25.9167 17.6433 25.3571 17.0837 24.6667 17.0837H1.33337C0.643017 17.0837 0.083374 17.6433 0.083374 18.3337C0.083374 19.024 0.643017 19.5837 1.33337 19.5837H24.6667C25.3571 19.5837 25.9167 19.024 25.9167 18.3337Z" fill="#252A34"/>
</svg>
