<svg width="68" height="68" viewBox="0 0 68 68" fill="none" xmlns="http://www.w3.org/2000/svg">
<path fill-rule="evenodd" clip-rule="evenodd" d="M0.666992 34.0191C0.666992 15.6207 15.6284 0.666504 34.0003 0.666504C52.3723 0.666504 67.3337 15.6207 67.3337 34.0191C67.3337 52.379 52.3723 67.3332 34.0003 67.3332C15.6284 67.3332 0.666992 52.379 0.666992 34.0191ZM46.2269 37.3926C46.5808 37.0389 47.0312 36.4922 47.1278 36.3635C47.6426 35.6882 47.9 34.852 47.9 34.0191C47.9 33.0832 47.6104 32.2149 47.0634 31.5074C47.0186 31.4626 46.9308 31.3671 46.8164 31.2426C46.6024 31.0096 46.2952 30.6753 46.0016 30.3819C43.3633 27.5518 36.4778 22.9208 32.8742 21.5058C32.3272 21.2839 30.9437 20.7983 30.2037 20.7662C29.4958 20.7662 28.8202 20.927 28.1767 21.2485C27.3723 21.6988 26.7288 22.4063 26.3749 23.2424C26.1496 23.8213 25.7957 25.5579 25.7957 25.5901C25.4418 27.4875 25.2487 30.5748 25.2487 33.9837C25.2487 37.235 25.4418 40.1905 25.7314 42.1201C25.7393 42.128 25.767 42.266 25.81 42.4804C25.9407 43.1322 26.213 44.49 26.5036 45.0466C27.2114 46.3973 28.5949 47.2334 30.075 47.2334H30.2037C31.1689 47.2013 33.196 46.3651 33.196 46.333C36.6065 44.9179 43.3311 40.5121 46.0338 37.5856L46.2269 37.3926Z" fill="#FF165D"/>
</svg>
