<svg width="12" height="17" viewBox="0 0 12 17" fill="none" xmlns="http://www.w3.org/2000/svg">
<path d="M6.05212 0.720944C5.81076 0.615123 5.57304 0.689152 5.42012 0.844891C5.27157 0.996175 5.19727 1.22707 5.24936 1.45986C5.33158 1.82732 5.375 2.20961 5.375 2.60229C5.375 3.49883 5.14904 4.12675 4.76025 4.64729C4.36502 5.17644 3.79291 5.60724 3.07055 6.09331C3.0592 6.10095 3.04862 6.10969 3.03898 6.1194L2.95149 6.20757C1.40163 7.20886 0.375 8.95228 0.375 10.9356C0.375 14.0422 2.8934 16.5606 6 16.5606C9.1066 16.5606 11.625 14.0422 11.625 10.9356C11.625 10.0235 11.4077 9.16151 11.022 8.39915C10.9906 8.33714 10.9303 8.29485 10.8613 8.28642C10.7923 8.27799 10.7237 8.30453 10.6783 8.35717C10.6196 8.42529 10.562 8.49253 10.5053 8.55878C9.7734 9.41393 9.18274 10.104 7.9718 10.4123C7.9203 10.4254 7.88831 10.4157 7.86561 10.4015C7.83889 10.3848 7.80967 10.3515 7.78964 10.2983C7.7479 10.1873 7.76581 10.0458 7.85134 9.95311C8.49899 9.25094 8.95908 8.29778 9.12348 6.94185C9.43145 4.40193 8.27707 1.69644 6.05212 0.720944Z" fill="#FF165D"/>
</svg>
