<svg width="16" height="16" viewBox="0 0 16 16" fill="none" xmlns="http://www.w3.org/2000/svg">
<path fill-rule="evenodd" clip-rule="evenodd" d="M9.98758 10.8717C7.77902 12.6406 4.54616 12.5014 2.49884 10.454C0.302144 8.25734 0.302144 4.69579 2.49884 2.49909C4.69554 0.302388 8.25709 0.302388 10.4538 2.49909C12.5011 4.5464 12.6403 7.77926 10.8715 9.98782L15.1678 14.2842C15.4119 14.5283 15.4119 14.924 15.1678 15.1681C14.9237 15.4121 14.528 15.4121 14.2839 15.1681L9.98758 10.8717ZM3.38273 9.57015C1.67418 7.86161 1.67418 5.09151 3.38273 3.38297C5.09127 1.67443 7.86137 1.67443 9.56991 3.38297C11.2772 5.09026 11.2785 7.85754 9.57367 9.56639C9.57241 9.56763 9.57115 9.56888 9.5699 9.57013C9.56864 9.57139 9.56739 9.57265 9.56615 9.57391C7.85731 11.2787 5.09002 11.2774 3.38273 9.57015Z" fill="#BDBDBD"/>
</svg>
