<svg width="18" height="16" viewBox="0 0 18 16" fill="none" xmlns="http://www.w3.org/2000/svg">
<path d="M8.53834 1.41194C8.70914 1.0013 9.29086 1.0013 9.46166 1.41194L10.9488 4.98748C11.1648 5.50683 11.6532 5.86169 12.2139 5.90664L16.074 6.2161C16.5173 6.25164 16.6971 6.80489 16.3593 7.09423L13.4184 9.61349C12.9912 9.97942 12.8046 10.5536 12.9351 11.1007L13.8336 14.8675C13.9368 15.3001 13.4662 15.642 13.0867 15.4102L9.78188 13.3917C9.30186 13.0985 8.69814 13.0985 8.21812 13.3917L4.91334 15.4102C4.53379 15.6421 4.06317 15.3001 4.16636 14.8675L5.06488 11.1007C5.19539 10.5536 5.00883 9.97942 4.58165 9.61349L1.64067 7.09423C1.3029 6.80489 1.48266 6.25164 1.92599 6.2161L5.78608 5.90663C6.34677 5.86169 6.83518 5.50683 7.05119 4.98748L8.53834 1.41194Z" fill="white" stroke="#FF165D"/>
<path d="M8.03975 1.3083C8.24935 0.804342 8.99982 0.954188 8.99982 1.5L9 8V11V11.5L8.99987 12.9391C8.99984 13.2875 8.81847 13.6108 8.52113 13.7924L5.17379 15.8369C4.41469 16.3006 3.47344 15.6167 3.67983 14.7515L4.57835 10.9847C4.66535 10.6199 4.54098 10.2372 4.25619 9.99322L1.31521 7.47396C0.639677 6.89529 0.999202 5.78878 1.88586 5.7177L5.74595 5.40823C6.11974 5.37827 6.44535 5.1417 6.58935 4.79546L8.03975 1.3083Z" fill="#FF165D"/>
</svg>


