<svg width="18" height="15" viewBox="0 0 18 15" fill="none" xmlns="http://www.w3.org/2000/svg">
<path d="M17.75 1.72973C17.5105 2.08851 17.2385 2.42451 16.9375 2.73348C16.635 3.04444 16.3062 3.32882 15.955 3.58348C15.9663 3.74031 15.9721 3.89749 15.9725 4.05473C15.9725 4.77223 15.8962 5.48098 15.7425 6.18223C15.5893 6.88096 15.3657 7.56236 15.075 8.21598C14.6724 9.13687 14.1404 9.99554 13.495 10.766C12.8765 11.5027 12.1519 12.1435 11.345 12.6672C10.5353 13.1897 9.65284 13.5899 8.72625 13.8547C7.75938 14.1315 6.75819 14.2699 5.7525 14.266C4.78265 14.2672 3.81756 14.1304 2.88625 13.8597C1.95286 13.588 1.06458 13.1803 0.25 12.6497C1.19022 12.7634 2.14362 12.6905 3.05563 12.4353C3.96765 12.18 4.82038 11.7474 5.565 11.1622C5.00794 11.1544 4.46053 11.0157 3.96697 10.7573C3.4734 10.4989 3.04753 10.1281 2.72375 9.67473C2.50291 9.37006 2.33124 9.03262 2.215 8.67473C2.32875 8.69223 2.44125 8.70723 2.5525 8.71848C2.98155 8.76047 3.41467 8.72276 3.83 8.60723C3.42032 8.52645 3.02835 8.37321 2.6725 8.15473C2.3277 7.94285 2.02023 7.67551 1.7625 7.36348C1.2334 6.72284 0.945861 5.91685 0.95 5.08598V5.04473C1.4525 5.32848 1.99625 5.47973 2.5825 5.49723C2.09366 5.16425 1.69232 4.71832 1.4125 4.19723C1.27547 3.94023 1.16931 3.66792 1.09625 3.38598C0.947425 2.78934 0.950433 2.16491 1.105 1.56973C1.18375 1.26598 1.30625 0.977231 1.4725 0.703481C1.9275 1.26723 2.435 1.77348 2.9925 2.21973C4.10051 3.10834 5.38082 3.75743 6.7525 4.12598C7.44486 4.31151 8.15522 4.42173 8.87125 4.45473C8.83671 4.32137 8.81247 4.18555 8.79875 4.04848C8.78467 3.91101 8.77757 3.77292 8.7775 3.63473C8.7775 3.13848 8.87125 2.67223 9.06 2.23723C9.42595 1.37769 10.1105 0.693185 10.97 0.327231C11.4111 0.138429 11.8864 0.0426826 12.3663 0.0459808C12.8584 0.0435869 13.3457 0.143333 13.7973 0.338913C14.2489 0.534493 14.655 0.821651 14.99 1.18223C15.7919 1.02391 16.5607 0.728768 17.2625 0.309731C17.0023 1.14269 16.4419 1.84925 15.69 2.29223C16.4009 2.2096 17.0954 2.0204 17.75 1.73098V1.72973Z" fill="white"/>
</svg>
