<svg width="20" height="20" viewBox="0 0 20 20" fill="white" xmlns="http://www.w3.org/2000/svg">
<path fill-rule="evenodd" clip-rule="evenodd" d="M5.82401 4.07546C8.60373 3.85799 11.3962 3.85799 14.1759 4.07546L16.0432 4.22154C17.0832 4.30291 17.9341 5.08241 18.106 6.11138C18.5362 8.68596 18.5362 11.3141 18.106 13.8887C17.9341 14.9176 17.0832 15.6971 16.0432 15.7785L14.1759 15.9246C11.3962 16.1421 8.60373 16.1421 5.82401 15.9246L3.95676 15.7785C2.9167 15.6971 2.06584 14.9176 1.89392 13.8887C1.46375 11.3141 1.46375 8.68596 1.89392 6.11138C2.06584 5.08241 2.9167 4.30291 3.95676 4.22154L5.82401 4.07546ZM8.33327 12.0585V7.94157C8.33327 7.74725 8.54527 7.62722 8.7119 7.7272L12.1427 9.78565C12.3045 9.88275 12.3045 10.1173 12.1427 10.2144L8.7119 12.2729C8.54527 12.3728 8.33327 12.2528 8.33327 12.0585Z"/>
</svg>
