<svg width="232" height="173" viewBox="0 0 232 173" fill="none" xmlns="http://www.w3.org/2000/svg">
<path d="M48.5746 63.9109C49.7678 63.9109 50.7351 62.9492 50.7351 61.7628C50.7351 60.5765 49.7678 59.6147 48.5746 59.6147C47.3813 59.6147 46.4141 60.5765 46.4141 61.7628C46.4141 62.9492 47.3813 63.9109 48.5746 63.9109Z" fill="#3EC1D3"/>
<path d="M138.635 11.1159C139.331 11.1159 139.896 10.5544 139.896 9.86167C139.896 9.16897 139.331 8.60742 138.635 8.60742C137.938 8.60742 137.373 9.16897 137.373 9.86167C137.373 10.5544 137.938 11.1159 138.635 11.1159Z" fill="#3EC1D3"/>
<path d="M206.203 52.0005C207.484 52.0005 208.523 50.9678 208.523 49.6939C208.523 48.4199 207.484 47.3872 206.203 47.3872C204.922 47.3872 203.883 48.4199 203.883 49.6939C203.883 50.9678 204.922 52.0005 206.203 52.0005Z" fill="#3EC1D3"/>
<path d="M59.5941 69.5039C60.3629 69.5039 60.9861 68.8842 60.9861 68.1198C60.9861 67.3555 60.3629 66.7358 59.5941 66.7358C58.8254 66.7358 58.2021 67.3555 58.2021 68.1198C58.2021 68.8842 58.8254 69.5039 59.5941 69.5039Z" fill="#FF165D"/>
<path d="M131.718 15.482C132.367 15.482 132.893 14.9592 132.893 14.3142C132.893 13.6693 132.367 13.1465 131.718 13.1465C131.07 13.1465 130.544 13.6693 130.544 14.3142C130.544 14.9592 131.07 15.482 131.718 15.482Z" fill="#FF165D"/>
<path d="M174.841 45.5988C175.697 45.5988 176.392 44.9082 176.392 44.0563C176.392 43.2043 175.697 42.5137 174.841 42.5137C173.984 42.5137 173.289 43.2043 173.289 44.0563C173.289 44.9082 173.984 45.5988 174.841 45.5988Z" fill="#FF165D"/>
<path d="M100.861 55.3583C101.446 55.3583 101.92 54.8871 101.92 54.3058C101.92 53.7246 101.446 53.2534 100.861 53.2534C100.277 53.2534 99.8027 53.7246 99.8027 54.3058C99.8027 54.8871 100.277 55.3583 100.861 55.3583Z" fill="#FF165D"/>
<path d="M45.7474 16.5499C47.0448 16.5499 48.0964 15.5043 48.0964 14.2144C48.0964 12.9245 47.0448 11.8789 45.7474 11.8789C44.4501 11.8789 43.3984 12.9245 43.3984 14.2144C43.3984 15.5043 44.4501 16.5499 45.7474 16.5499Z" fill="#FF165D"/>
<path d="M139.594 23.1963C139.695 22.2304 140.899 22.4178 141.464 22.7062C141.899 22.9368 142.276 23.254 142.711 23.4703C143.393 23.8307 144.118 23.9604 144.814 23.5567C145.655 23.0666 146.278 22.3746 147.293 22.1728C148.308 21.9709 149.033 22.7494 150.005 22.6485C150.715 22.562 151.31 22.1007 151.919 21.7691C152.31 21.5528 152.731 21.351 153.195 21.3798C153.717 21.4087 154.166 21.697 154.616 21.9277C155.268 22.2593 155.877 22.4467 156.588 22.1872C157.081 22.0142 157.516 21.7835 158.052 21.7691C158.748 21.7547 159.386 21.9998 159.908 22.4611C160.126 22.6485 160.43 22.3313 160.213 22.1583C159.531 21.5672 158.676 21.2645 157.777 21.3654C157.211 21.4231 156.791 21.7403 156.24 21.8556C155.573 21.9998 155.022 21.6537 154.456 21.3654C153.688 20.9762 153.006 20.8176 152.194 21.1492C151.237 21.5384 150.396 22.4755 149.294 22.1295C148.816 21.9709 148.41 21.7258 147.873 21.697C147.409 21.6826 146.945 21.7835 146.51 21.9565C145.394 22.4034 144.509 23.7153 143.233 23.2252C142.291 22.8648 141.508 21.8988 140.406 21.9998C139.739 22.0718 139.202 22.5043 139.13 23.1819C139.13 23.4703 139.565 23.4702 139.594 23.1963Z" fill="#828282"/>
<path d="M145.276 21.2193C145.769 20.4264 146.595 19.9074 147.538 19.8497C148.422 19.7921 149.176 20.2822 150.032 20.4408C150.641 20.5417 151.163 20.3976 151.685 20.1092C152.569 19.6191 153.207 19.2875 154.251 19.4605C154.918 19.5758 155.571 19.7776 156.267 19.8209C157.006 19.8641 157.572 19.6335 158.224 19.3163C159.95 18.509 161.429 19.8353 163.169 19.8065C163.444 19.8065 163.444 19.374 163.169 19.374C161.472 19.4028 159.979 18.0909 158.268 18.8261C157.862 18.9991 157.485 19.2442 157.05 19.3451C156.557 19.4605 156.049 19.3884 155.556 19.3019C154.788 19.1577 154.019 18.8982 153.236 18.9847C152.511 19.0568 151.989 19.4749 151.366 19.7921C150.264 20.3687 149.394 19.6911 148.306 19.4749C146.958 19.2154 145.609 19.8641 144.884 21.0031C144.754 21.2481 145.116 21.4644 145.276 21.2193Z" fill="#828282"/>
<path d="M73.153 70.9872C73.443 69.56 75.386 70.6268 76.169 70.8142C77.039 71.0161 77.8075 70.7133 78.576 70.3241C79.0545 70.079 79.533 69.8051 80.0695 69.7042C80.6785 69.5888 81.2585 69.7907 81.8095 70.0069C82.6215 70.3097 83.4625 70.6845 84.318 70.3385C85.0865 70.0357 85.855 68.868 86.7685 69.0842C87.5515 69.2717 87.9575 70.0213 88.7985 69.4879C89.2915 69.1852 89.5815 68.9401 90.205 69.0987C90.582 69.1996 90.9445 69.387 91.307 69.5312C91.9015 69.7618 92.496 69.906 93.047 69.5312C93.279 69.3726 93.0615 68.9977 92.8295 69.1563C92.061 69.6897 91.0895 68.8968 90.321 68.6806C90.031 68.6085 89.7265 68.5652 89.4365 68.6229C88.8275 68.7527 88.4505 69.4735 87.7545 69.1131C87.102 68.7671 86.6235 68.4355 85.884 68.7815C84.811 69.2861 84.289 70.2952 82.9405 69.9492C81.998 69.7042 81.1715 69.1419 80.1565 69.2572C79.156 69.3726 78.3875 70.079 77.445 70.3529C76.227 70.7133 75.3135 69.7762 74.1245 69.8483C73.472 69.8916 72.863 70.2232 72.718 70.8863C72.6745 71.1458 73.095 71.2612 73.153 70.9872Z" fill="#828282"/>
<path d="M83.5639 67.975C84.2454 67.3983 85.1589 67.2542 85.9854 67.629C86.5074 67.8597 86.9569 68.1624 87.5514 68.1768C88.7839 68.1913 90.5964 66.8361 91.5824 68.1048C91.6694 68.2201 91.858 68.1624 91.9305 68.0615C92.931 66.418 95.048 66.937 96.556 67.3839C96.8315 67.456 96.933 67.0523 96.672 66.9658C94.9465 66.4612 92.6555 66.0143 91.5535 67.8452C91.6695 67.8308 91.7855 67.8164 91.9015 67.802C90.756 66.3459 88.9434 67.7876 87.5514 67.7587C86.6669 67.7299 86 67.0235 85.101 66.9947C84.405 66.9802 83.7814 67.2397 83.2594 67.6867C83.0419 67.8597 83.3609 68.1624 83.5639 67.975Z" fill="#828282"/>
<path d="M27.4919 83.9773C27.7094 83.3573 28.2894 82.9104 28.9709 82.9104C29.5654 82.9104 30.0294 83.3141 30.4499 83.6745C30.9864 84.1214 31.5664 84.6404 32.3204 84.5107C33.2049 84.3521 33.5964 83.4294 34.2779 82.9537C35.2639 82.2761 36.5979 82.3482 37.6999 82.6798C38.6134 82.9681 39.5124 83.5015 40.4839 83.1267C41.3684 82.7807 41.8904 81.858 42.9199 81.8003C44.5874 81.7138 46.0229 83.2997 47.6904 82.5068C47.9369 82.3914 47.7194 82.0166 47.4729 82.1319C45.7474 82.9537 44.0074 80.82 42.1949 81.512C40.9914 81.9733 40.5274 83.1267 39.0339 82.6942C38.0189 82.4058 37.1344 81.9733 36.0469 81.9878C35.1769 82.0022 34.3359 82.2617 33.6834 82.8528C33.2194 83.2708 32.8424 84.0349 32.1464 84.0782C31.5954 84.107 31.1459 83.6601 30.7544 83.3429C30.1599 82.8528 29.5509 82.3626 28.7244 82.4779C27.9414 82.5788 27.3324 83.1123 27.0714 83.8331C26.9844 84.1214 27.4049 84.2368 27.4919 83.9773Z" fill="#828282"/>
<path d="M18.2264 128.206C22.5039 125.077 27.4194 122.872 32.6104 121.747C35.2059 121.185 37.8739 120.896 40.5274 120.911C43.4709 120.925 46.3854 121.257 49.3144 121.473C52.5044 121.704 55.7234 121.733 58.8554 121.041C59.1309 120.983 59.0149 120.565 58.7394 120.623C52.8524 121.949 46.8639 120.565 40.9334 120.493C35.7279 120.421 30.5369 121.459 25.7374 123.463C22.9824 124.616 20.3869 126.086 17.9799 127.845C17.7769 128.004 17.9944 128.379 18.2264 128.206Z" fill="#828282"/>
<path d="M48.5742 121.979C52.2862 119.312 55.9692 116.572 59.7392 113.977C61.4792 112.781 63.3062 111.671 65.3217 110.979C67.2937 110.316 69.3672 110.099 71.4117 109.825C73.2967 109.58 75.1962 109.278 76.9652 108.513C78.5457 107.836 79.9232 106.798 81.1847 105.645C83.9107 103.122 86.1147 100.065 89.4352 98.2488C93.4082 96.0863 98.0482 95.5961 102.485 95.1492C102.761 95.1204 102.761 94.6879 102.485 94.7167C98.5992 95.106 94.6117 95.524 90.9722 97.0378C87.5212 98.465 85.1142 100.988 82.5912 103.626C81.3007 104.981 79.9522 106.322 78.3427 107.317C76.5737 108.413 74.5727 108.917 72.5282 109.234C70.5707 109.537 68.5697 109.696 66.6412 110.157C64.6257 110.633 62.7697 111.527 61.0297 112.608C58.8982 113.934 56.8827 115.462 54.8527 116.933C52.6922 118.49 50.5317 120.047 48.3567 121.589C48.1392 121.762 48.3567 122.137 48.5742 121.979Z" fill="#828282"/>
<path d="M115.781 145.461C118.188 143.183 121.247 141.828 124.249 140.472C127.7 138.915 131.18 137.719 134.993 138.714C135.269 138.786 135.385 138.368 135.109 138.295C131.383 137.315 127.932 138.368 124.51 139.881C121.32 141.294 118.043 142.721 115.476 145.143C115.259 145.345 115.578 145.648 115.781 145.461Z" fill="#828282"/>
<path d="M82.3468 133.41C84.8118 133.064 87.3058 133.699 89.6548 134.405C91.5253 134.967 93.4973 135.76 94.4688 137.562C94.5993 137.807 94.9763 137.591 94.8458 137.346C93.8453 135.515 91.8878 134.636 89.9738 134.059C87.4798 133.295 84.8408 132.646 82.2308 133.007C81.9553 133.021 82.0713 133.439 82.3468 133.41Z" fill="#828282"/>
<path d="M103.255 132.014C105.894 129.275 109.606 127.761 113.405 127.891C113.681 127.905 113.681 127.473 113.405 127.458C109.49 127.328 105.648 128.885 102.936 131.711C102.748 131.913 103.052 132.23 103.255 132.014Z" fill="#828282"/>
<path d="M103.502 115.39C106.417 115.88 108.998 117.595 110.564 120.104C110.709 120.335 111.086 120.118 110.941 119.888C109.317 117.293 106.649 115.491 103.633 114.986C103.343 114.928 103.227 115.346 103.502 115.39Z" fill="#828282"/>
<path d="M118.698 112.519C121.844 109.39 126.223 107.704 130.675 107.891C130.95 107.906 130.95 107.473 130.675 107.459C126.122 107.257 121.627 109.001 118.393 112.216C118.19 112.418 118.495 112.721 118.698 112.519Z" fill="#828282"/>
<path d="M110.388 151.056C112.026 148.865 115.376 148.433 117.565 150.062C117.783 150.235 118 149.86 117.783 149.687C115.39 147.899 111.794 148.476 110.011 150.84C109.837 151.071 110.214 151.287 110.388 151.056Z" fill="#828282"/>
<path d="M132.342 122.151C134.517 120.234 137.127 118.864 139.94 118.143C141.317 117.797 142.738 117.595 144.174 117.581C144.797 117.567 146.465 117.97 146.653 117.033C146.711 116.759 146.291 116.644 146.233 116.918C146.146 117.408 144.652 117.149 144.304 117.149C143.637 117.149 142.97 117.192 142.318 117.278C141.056 117.422 139.809 117.696 138.606 118.1C136.184 118.893 133.966 120.176 132.052 121.863C131.82 122.036 132.124 122.339 132.342 122.151Z" fill="#828282"/>
<path d="M135.837 106.366C137.693 106.135 139.447 107.461 139.708 109.307C139.752 109.581 140.172 109.465 140.129 109.191C139.839 107.173 137.867 105.688 135.837 105.933C135.561 105.962 135.561 106.395 135.837 106.366Z" fill="#828282"/>
<path d="M142.201 109.393C145.449 105.587 150.654 103.727 155.584 104.621C155.86 104.664 155.976 104.261 155.7 104.203C150.625 103.28 145.246 105.154 141.896 109.09C141.708 109.292 142.012 109.595 142.201 109.393Z" fill="#828282"/>
<path d="M70.3988 149.371C73.0233 148.189 75.9378 148.593 78.6348 149.241C81.3753 149.904 84.0868 150.625 85.7978 153.033C85.9573 153.264 86.3343 153.047 86.1748 152.817C85.4063 151.721 84.4058 150.827 83.2023 150.222C81.8248 149.53 80.2443 149.184 78.7508 148.823C75.9233 148.131 72.9073 147.771 70.1813 148.996C69.9203 149.112 70.1378 149.472 70.3988 149.371Z" fill="#828282"/>
<path d="M152.686 136.525C157.311 133.584 162.966 132.359 168.404 133.195C169.781 133.411 171.144 133.743 172.536 133.786C173.841 133.829 175.03 133.498 176.219 132.993C178.887 131.883 181.57 131.104 184.484 131.004C187.66 130.888 190.85 131.494 193.764 132.762C194.025 132.878 194.243 132.503 193.982 132.388C188.95 130.182 183.121 129.951 177.945 131.825C176.524 132.344 175.161 133.137 173.624 133.31C172 133.498 170.39 133.08 168.795 132.82C166.214 132.402 163.575 132.402 160.994 132.849C157.964 133.368 155.064 134.507 152.468 136.15C152.236 136.309 152.454 136.684 152.686 136.525Z" fill="#828282"/>
<path d="M174.739 126.507C179.451 124.489 184.599 122.326 189.848 123.004C190.993 123.148 192.168 123.652 193.328 123.523C194.401 123.407 195.387 122.831 196.445 122.6C198.896 122.067 201.477 122.456 203.666 123.624C203.913 123.753 204.13 123.379 203.884 123.249C201.839 122.153 199.519 121.721 197.214 122.023C196.025 122.182 195.01 122.658 193.864 122.975C192.501 123.35 191.095 122.73 189.732 122.557C184.425 121.922 179.277 124.085 174.507 126.132C174.275 126.247 174.492 126.622 174.739 126.507Z" fill="#828282"/>
<path d="M28.7097 143.949C31.1022 142.651 33.9152 142.882 36.4382 143.603C37.8302 143.992 39.1787 144.525 40.5272 145.03C41.6437 145.433 43.0212 146.14 44.2247 146.053C45.2542 145.981 46.2257 145.174 47.1827 144.814C48.3862 144.367 49.6622 144.107 50.9382 144.035C53.4467 143.905 55.9262 144.511 58.0867 145.808C58.3332 145.952 58.5507 145.578 58.3042 145.433C55.0562 143.487 50.9817 143.055 47.4002 144.28C46.5447 144.568 45.7762 145.015 44.9642 145.39C43.7752 145.938 42.2962 145.203 41.1507 144.799C39.0482 144.049 36.9602 143.141 34.7417 142.766C32.6102 142.406 30.4062 142.521 28.4777 143.559C28.2457 143.703 28.4632 144.078 28.7097 143.949Z" fill="#828282"/>
<path d="M171.258 11.8651C171.403 18.4679 171.403 25.0708 171.273 31.688C171.273 31.9619 171.708 31.9619 171.708 31.688C171.839 25.0852 171.839 18.4824 171.694 11.8651C171.679 11.5912 171.244 11.5912 171.258 11.8651Z" fill="#828282"/>
<path d="M172.028 11.3319C183.527 11.3319 195.025 11.3319 206.524 11.3319C206.799 11.3319 206.799 10.8994 206.524 10.8994C195.025 10.8994 183.527 10.8994 172.028 10.8994C171.738 10.8994 171.738 11.3319 172.028 11.3319Z" fill="#828282"/>
<path d="M173.55 32.163C184.367 32.163 195.184 32.163 206.001 32.163C206.277 32.163 206.277 31.7305 206.001 31.7305C195.184 31.7305 184.367 31.7305 173.55 31.7305C173.275 31.7305 173.275 32.163 173.55 32.163Z" fill="#828282"/>
<path d="M207.074 11.1157C207.074 17.632 207.074 24.1627 207.074 30.6791C207.074 30.953 207.51 30.953 207.51 30.6791C207.51 24.1627 207.51 17.632 207.51 11.1157C207.51 10.8273 207.074 10.8273 207.074 11.1157Z" fill="#828282"/>
<path d="M186.136 10.0767C186.093 10.4227 186.383 10.6678 186.731 10.5957C187.238 10.4948 187.296 9.80279 187.441 9.41354C187.601 8.99546 187.818 8.59179 188.079 8.21696C188.297 7.91421 188.369 7.68354 188.746 7.78446C189.109 7.88537 189.065 8.05837 189.167 8.37554C189.442 9.31262 189.674 10.2497 189.877 11.1868C189.935 11.4607 190.356 11.3454 190.298 11.0715C190.095 10.12 189.863 9.18287 189.587 8.26021C189.471 7.87096 189.355 7.15012 188.833 7.09246C188.326 7.02037 187.934 7.66912 187.702 8.01512C187.47 8.33229 187.282 8.67829 187.137 9.05312C187.064 9.21171 187.006 9.38471 186.948 9.54329C186.919 9.61537 186.905 9.68746 186.876 9.77396C186.861 9.94696 186.76 10.0479 186.586 10.1055C186.615 9.80279 186.18 9.80279 186.136 10.0767Z" fill="#828282"/>
<path d="M173.087 13.8973C173.087 18.972 173.087 24.0611 173.087 29.1357C173.087 29.4097 173.523 29.4097 173.523 29.1357C173.523 24.0611 173.523 18.972 173.523 13.8973C173.523 13.6234 173.087 13.6234 173.087 13.8973Z" fill="#828282"/>
<path d="M174.071 29.3646C183.946 29.3646 193.835 29.3646 203.709 29.3646C203.985 29.3646 203.985 28.9321 203.709 28.9321C193.835 28.9321 183.946 28.9321 174.071 28.9321C173.781 28.9321 173.781 29.3646 174.071 29.3646Z" fill="#828282"/>
<path d="M174.32 13.869C184.368 13.869 194.417 13.869 204.48 13.869C204.755 13.869 204.755 13.4365 204.48 13.4365C194.431 13.4365 184.383 13.4365 174.32 13.4365C174.044 13.4365 174.044 13.869 174.32 13.869Z" fill="#828282"/>
<path d="M204.509 13.1469C204.509 18.3081 204.509 23.4837 204.509 28.6448C204.509 28.9187 204.944 28.9187 204.944 28.6448C204.944 23.4837 204.944 18.3081 204.944 13.1469C204.944 12.8586 204.509 12.8586 204.509 13.1469Z" fill="#828282"/>
<path d="M173.594 22.2714C176.697 21.0892 179.626 23.5257 182.294 24.7511C184.918 25.9621 187.702 26.7694 190.573 27.1875C190.849 27.2307 190.965 26.8127 190.689 26.7694C187.514 26.3081 184.44 25.371 181.569 23.9293C179.075 22.6751 176.378 20.7432 173.463 21.8533C173.217 21.9542 173.333 22.3723 173.594 22.2714Z" fill="#828282"/>
<path d="M184.425 25.0263C186.208 24.9831 187.963 24.7668 189.688 24.3199C190.544 24.1037 191.37 23.7865 192.211 23.5414C193.241 23.2387 194.096 23.2675 195.126 23.5414C196.619 23.9595 197.808 23.7144 199.186 23.0224C200.955 22.143 202.622 21.5087 204.623 21.5087C204.899 21.5087 204.899 21.0762 204.623 21.0762C202.985 21.0762 201.404 21.4366 199.94 22.1574C199.157 22.5323 198.403 22.9936 197.562 23.2243C196.561 23.4982 195.735 23.2387 194.778 22.9936C193.168 22.5899 191.747 23.2675 190.225 23.7144C188.34 24.2623 186.397 24.5362 184.425 24.5794C184.135 24.5938 184.135 25.0263 184.425 25.0263Z" fill="#828282"/>
<path d="M198.2 22.4748C197.939 22.2441 197.417 21.9558 197.272 21.6531C197.098 21.5377 197.127 21.3647 197.388 21.1629C197.388 20.8313 197.519 20.6727 197.794 20.6871C197.954 20.6151 198.157 20.6295 198.331 20.6151C198.795 20.5574 199.288 20.4132 199.52 19.9807C199.708 19.6491 199.621 19.3896 199.462 19.0869C199.23 18.64 198.94 18.2075 199.418 17.775C199.94 17.3136 200.68 17.5587 201.173 17.9047C201.303 17.9912 201.448 17.8903 201.492 17.775C201.666 17.3281 202.057 17.0109 202.521 16.9244C202.71 16.8811 202.942 16.8811 203.116 16.9388C203.319 17.0109 203.957 17.5443 203.493 17.8038C203.246 17.948 203.464 18.3228 203.71 18.1786C204.435 17.7606 203.957 16.7802 203.304 16.5496C202.376 16.218 201.405 16.7946 201.057 17.6596C201.158 17.6164 201.274 17.5731 201.376 17.5299C200.752 17.1118 199.897 16.8811 199.23 17.3569C198.577 17.8182 198.635 18.4093 198.853 19.0581C198.896 19.1157 198.94 19.1734 198.998 19.2311C199.114 19.8221 198.94 20.1393 198.447 20.1826C198.157 20.2402 197.852 20.2258 197.562 20.2979C197.214 20.3844 196.91 20.5574 196.721 20.8601C196.228 21.6963 197.359 22.3306 197.881 22.792C198.113 22.965 198.418 22.6478 198.2 22.4748Z" fill="#828282"/>
<path d="M187.282 18.2921C186.789 17.975 187.181 17.2541 187.543 17.009C187.964 16.7207 188.602 16.663 189.022 16.9802C189.472 17.2974 189.544 18.0182 189.153 18.4363C188.747 18.8688 188.051 18.7823 187.659 18.3786C187.471 18.1768 187.166 18.4795 187.355 18.6814C187.891 19.258 188.892 19.3301 189.457 18.739C190.023 18.148 189.936 17.11 189.283 16.6342C188.631 16.1585 187.616 16.2882 187.065 16.836C186.572 17.3262 186.398 18.2489 187.05 18.667C187.297 18.8111 187.514 18.4363 187.282 18.2921Z" fill="#828282"/>
<path d="M57.5642 17.4003C57.1582 26.6269 56.8972 35.8536 56.7812 45.0947C56.7812 45.3686 57.2162 45.3686 57.2162 45.0947C57.3322 35.8536 57.5932 26.6269 57.9992 17.4003C58.0137 17.1263 57.5787 17.1263 57.5642 17.4003Z" fill="#828282"/>
<path d="M57.4191 44.6779C69.5846 41.6648 81.6341 38.2193 93.5531 34.3412C96.9606 33.2311 100.354 32.0922 103.732 30.9244C103.993 30.8379 103.877 30.4198 103.616 30.5063C91.7841 34.6151 79.8071 38.3058 67.7141 41.5639C64.2631 42.501 60.7976 43.3948 57.3176 44.2598C57.0421 44.3175 57.1581 44.7356 57.4191 44.6779Z" fill="#828282"/>
<path d="M58.7704 17.2113C69.8774 14.3856 81.115 12.0645 92.4394 10.2625C95.7309 9.74346 99.0224 9.25329 102.328 8.82079C102.604 8.77754 102.604 8.34504 102.328 8.38829C90.9024 9.90204 79.5344 11.9348 68.2969 14.4721C65.0779 15.2074 61.8734 15.9715 58.6689 16.7932C58.3789 16.8509 58.4949 17.269 58.7704 17.2113Z" fill="#828282"/>
<path d="M102.383 8.66449C102.775 15.8872 103.166 23.11 103.558 30.3327C103.572 30.6067 104.007 30.6067 103.993 30.3327C103.601 23.11 103.21 15.8872 102.818 8.66449C102.804 8.37616 102.369 8.37616 102.383 8.66449Z" fill="#828282"/>
<path d="M57.6957 20.4277C59.2037 20.0528 60.7262 19.6924 62.2342 19.3176C62.1472 19.2455 62.0457 19.1734 61.9587 19.1157C61.2627 26.9007 61.0307 34.7146 61.2772 42.5284C61.2917 42.8023 61.7267 42.8023 61.7122 42.5284C61.4657 34.7146 61.6977 26.9007 62.3937 19.1157C62.4082 18.9716 62.2487 18.8707 62.1182 18.9139C60.6102 19.2887 59.0877 19.6492 57.5797 20.024C57.3187 20.0817 57.4347 20.4997 57.6957 20.4277Z" fill="#828282"/>
<path d="M81.997 37.0806C82.0115 35.9561 82.0695 34.8316 82.1855 33.7071C82.2145 33.4621 82.171 33.0728 82.3015 32.8566C82.5045 32.5106 83.041 32.3952 83.389 32.2943C83.8965 32.1501 84.404 32.006 84.9115 31.8618C87.072 31.2563 89.2325 30.6508 91.4075 30.0453C93.5245 29.4542 95.6415 28.8631 97.7585 28.2721C98.3095 28.1135 98.8605 27.9693 99.4115 27.8107C99.9045 27.6666 100.557 27.3494 101.065 27.3494C101.558 27.3494 101.587 27.5801 101.543 27.9693C101.514 28.2288 101.5 28.5027 101.471 28.7622C101.427 29.2956 101.369 29.8146 101.326 30.3481C101.297 30.622 101.732 30.622 101.761 30.3481C101.819 29.6416 101.891 28.9352 101.949 28.2288C101.978 27.8828 102.123 27.4071 101.877 27.1043C101.413 26.4988 100.108 27.162 99.5565 27.3206C96.8885 28.0702 94.2205 28.8199 91.5525 29.5696C88.8845 30.3192 86.2165 31.0689 83.5485 31.8186C82.7655 32.0348 82.0115 32.1069 81.8375 32.9863C81.5765 34.3126 81.591 35.7543 81.5765 37.0951C81.562 37.3546 81.997 37.3546 81.997 37.0806Z" fill="#828282"/>
<path d="M81.8949 32.4927C78.8499 32.1755 75.7904 31.8583 72.7889 31.2384C72.6149 31.2096 72.4989 31.3393 72.5279 31.4979C72.7164 32.6657 72.7744 33.9343 73.0934 35.0732C73.3109 35.8229 73.9634 35.9959 74.6304 36.2554C76.7474 37.0772 78.9514 37.6394 81.1989 37.971C81.4744 38.0142 81.5904 37.5962 81.3149 37.5529C79.4154 37.279 77.5594 36.8321 75.7469 36.2122C75.3264 36.068 74.9059 35.9094 74.4999 35.7508C73.8329 35.4769 73.5574 35.203 73.4414 34.4822C73.2819 33.4586 73.1224 32.4206 72.9629 31.397C72.8759 31.4835 72.7889 31.57 72.7019 31.6565C75.7469 32.2764 78.8354 32.5936 81.9239 32.9252C82.1704 32.954 82.1704 32.5215 81.8949 32.4927Z" fill="#828282"/>
<path d="M73.0954 31.3412C74.8354 30.6925 76.5899 30.1158 78.3734 29.6256C78.6489 29.5535 78.5329 29.1355 78.2574 29.2075C76.4739 29.7121 74.7049 30.2888 72.9794 30.9231C72.7184 31.0096 72.8199 31.4277 73.0954 31.3412Z" fill="#828282"/>
<path d="M83.8549 27.9681C83.9565 29.0061 84.0582 30.0441 84.1453 31.0677C84.1743 31.3416 84.6099 31.3416 84.5809 31.0677C84.4792 30.0297 84.3776 28.9917 84.2905 27.9681C84.2615 27.6942 83.8259 27.6942 83.8549 27.9681Z" fill="#828282"/>
<path d="M83.8241 27.7359C86.4921 27.5629 89.0151 26.496 91.5816 25.8184C94.2786 25.0976 97.0191 24.5498 99.7886 24.1605C99.7016 24.074 99.6146 23.9875 99.5276 23.901C99.3681 24.9534 99.2666 26.0059 99.2086 27.0583C99.1941 27.3322 99.6291 27.3322 99.6436 27.0583C99.7016 26.0347 99.8031 25.0255 99.9481 24.0164C99.9771 23.8434 99.8611 23.728 99.6871 23.7569C97.0046 24.1317 94.3656 24.6651 91.7411 25.3427C89.1311 26.0203 86.5356 27.1448 83.8386 27.3178C83.5341 27.3178 83.5341 27.7503 83.8241 27.7359Z" fill="#828282"/>
<path d="M78.532 26.7127C78.474 27.4191 78.2565 28.2841 78.3435 28.9761C78.4015 29.3942 78.6625 29.524 79.025 29.6393C80.678 30.1439 82.4035 30.461 84.0855 30.8647C84.361 30.9368 84.477 30.5187 84.2015 30.4466C82.94 30.1439 81.664 29.8267 80.4025 29.524C80.0835 29.4519 79.721 29.4086 79.4165 29.2789C79.0105 29.1059 78.8365 28.9617 78.793 28.486C78.7495 27.9237 78.8945 27.2605 78.9525 26.6983C78.9815 26.4244 78.5465 26.4244 78.532 26.7127Z" fill="#828282"/>
<path d="M78.6058 26.484C80.3313 26.7579 82.0568 27.0318 83.7823 27.3057C84.0578 27.349 84.1738 26.9309 83.8983 26.8877C82.1728 26.6138 80.4473 26.3398 78.7218 26.0659C78.4463 26.0371 78.3303 26.4408 78.6058 26.484Z" fill="#828282"/>
<path d="M78.9822 26.0059C81.7373 25.2274 84.4923 24.4633 87.2473 23.6848C89.9733 22.9207 92.7138 22.1567 95.5413 21.9548C95.8168 21.9404 95.8168 21.5079 95.5413 21.5223C92.7573 21.7242 90.0748 22.445 87.3923 23.1947C84.5503 23.9876 81.7082 24.7949 78.8517 25.5878C78.6052 25.6599 78.7212 26.078 78.9822 26.0059Z" fill="#828282"/>
<path d="M94.556 21.8692C96.209 22.4027 97.804 23.0658 99.341 23.8732C99.5875 24.0029 99.805 23.6281 99.5585 23.4983C97.978 22.691 96.354 21.999 94.672 21.4512C94.3965 21.3647 94.2805 21.7827 94.556 21.8692Z" fill="#828282"/>
<path d="M61.8556 23.3554C62.6821 23.0527 63.5376 22.8653 64.4221 22.8797C64.7846 22.8797 65.1906 22.8508 65.3791 23.3266C65.4371 23.4708 65.3791 23.7447 65.3936 23.9033C65.3936 24.3358 65.4081 24.7683 65.4081 25.2008C65.4371 27.0173 65.4516 28.8482 65.4806 30.6647C65.5241 34.2544 65.5821 37.8586 65.6256 41.4483C65.6256 41.7222 66.0606 41.7222 66.0606 41.4483C66.0026 37.2242 65.9446 33.0146 65.9011 28.7905C65.8866 27.7381 65.8721 26.6857 65.8576 25.6333C65.8576 25.1575 65.8431 24.6673 65.8431 24.1916C65.8431 23.8023 65.9301 23.2978 65.7851 22.9229C65.5821 22.4039 64.9006 22.4472 64.4511 22.4472C63.5231 22.4328 62.6241 22.6202 61.7686 22.9373C61.4786 23.0383 61.5946 23.4563 61.8556 23.3554Z" fill="#828282"/>
<path d="M66.277 37.6255C68.539 37.0056 70.7865 36.3857 73.0485 35.7658C73.324 35.6937 73.208 35.2756 72.9325 35.3477C70.6705 35.9676 68.423 36.5875 66.161 37.2074C65.9 37.2939 66.0015 37.6976 66.277 37.6255Z" fill="#828282"/>
<path d="M57.9553 48.4667C57.8827 50.7878 57.8101 53.1233 57.723 55.4443C57.7085 55.7183 58.1441 55.7183 58.1586 55.4443C58.2312 53.1233 58.3038 50.7878 58.3909 48.4667C58.4054 48.1928 57.9698 48.1928 57.9553 48.4667Z" fill="#828282"/>
<path d="M85.0857 34.5269C85.1872 33.6764 86.3182 33.8205 86.9127 33.7484C87.2607 33.7052 87.5797 33.6043 87.8697 33.4313C88.2322 33.215 88.4932 32.8834 88.8557 32.6528C89.2617 32.3933 90.0882 32.2203 90.2042 32.8979C90.2332 33.0709 90.4652 33.0997 90.5667 32.9988C91.0887 32.523 91.6252 32.0329 92.2632 31.7157C92.6402 31.5283 93.0462 31.3985 93.4667 31.4129C93.7422 31.4274 93.9742 31.5427 94.2497 31.5427C94.6992 31.5427 95.1342 31.2399 95.5257 31.0381C96.2217 30.7065 96.9031 30.3605 97.5991 30.0289C97.8456 29.9136 97.6281 29.5388 97.3816 29.6541C96.6856 29.9857 96.0042 30.3317 95.3082 30.6633C94.8587 30.8795 94.5107 31.0958 93.9887 31.0525C93.6987 31.0237 93.4522 30.966 93.1332 30.9949C92.0022 31.1246 91.0597 31.9319 90.2622 32.6816C90.3782 32.7104 90.5087 32.7393 90.6247 32.7825C90.5522 32.3212 90.1897 32.0761 89.7402 32.004C89.1457 31.9175 88.7107 32.2059 88.2612 32.5663C87.7972 32.9411 87.4782 33.215 86.8837 33.3159C86.4777 33.3736 86.0572 33.3304 85.6657 33.4457C85.1147 33.6043 84.7377 33.9647 84.6652 34.5269C84.6217 34.8009 85.0567 34.8009 85.0857 34.5269Z" fill="#828282"/>
<path d="M87.1302 28.3706C87.7827 27.7507 88.9427 28.4427 89.7547 28.3129C90.1027 28.2552 90.3637 28.0678 90.6827 27.9237C91.2192 27.6786 91.7992 27.7507 92.3792 27.6497C94.2207 27.3326 95.8592 25.7756 97.8022 26.136C98.0777 26.1937 98.1937 25.7756 97.9182 25.7179C95.8157 25.3287 94.1772 26.9433 92.1907 27.2317C91.6832 27.3037 91.1612 27.2605 90.6827 27.4479C90.4072 27.5488 90.1607 27.7507 89.8852 27.8372C89.5517 27.9381 89.2182 27.8804 88.8847 27.8372C88.1597 27.7218 87.4202 27.4912 86.8257 28.0534C86.6227 28.2552 86.9272 28.558 87.1302 28.3706Z" fill="#828282"/>
<path d="M57.8246 48.5093C69.7726 44.761 81.7206 41.0126 93.6541 37.2787C97.0471 36.2119 100.455 35.1451 103.848 34.0782C104.109 33.9917 104.007 33.5737 103.732 33.6602C91.7836 37.4085 79.8356 41.1568 67.9021 44.8907C64.5091 45.9576 61.1016 47.0244 57.7086 48.0912C57.4476 48.1777 57.5636 48.5958 57.8246 48.5093Z" fill="#828282"/>
<path d="M58.0431 55.4751C70.1361 52.3755 82.0261 48.4542 93.5826 43.7544C96.7726 42.4569 99.9481 41.1017 103.095 39.6744C103.356 39.5591 103.124 39.1843 102.877 39.2996C91.5526 44.4031 79.8946 48.7425 67.9756 52.2746C64.6406 53.2694 61.2911 54.192 57.9271 55.057C57.6516 55.1291 57.7676 55.5472 58.0431 55.4751Z" fill="#828282"/>
<path d="M103.387 34.3403C103.401 35.9694 103.43 37.584 103.445 39.2131C103.445 39.487 103.88 39.487 103.88 39.2131C103.866 37.584 103.837 35.9694 103.822 34.3403C103.822 34.0664 103.387 34.0519 103.387 34.3403Z" fill="#828282"/>
<path d="M80.5918 102.244C82.8248 100.875 85.8118 98.5391 87.5083 94.8052C89.2918 90.8838 88.1898 88.6348 89.0598 85.1893C90.7853 78.399 97.0493 79.3505 103.821 71.6232C110.839 63.6219 108.272 57.8552 116.465 49.8252C119.321 47.0139 122.163 45.2407 124.106 44.1738C123.99 45.2983 123.86 46.4228 123.744 47.5617C123.193 47.8357 122.337 48.297 121.366 48.9602C118.64 50.8343 116.146 53.6312 113.115 60.0177C110.331 65.8709 111.549 65.4096 109.722 68.4803C106.547 73.8578 101.617 77.361 98.5573 79.5235C94.7293 82.2338 92.5688 82.9114 91.4813 85.7083C90.5243 88.1735 91.4523 89.5719 91.1333 92.412C90.8433 95.007 89.5528 98.5103 85.0723 102.46C83.5788 102.374 82.0853 102.316 80.5918 102.244Z" fill="#3EC1D3"/>
<path d="M54.9404 116.645L76.9079 121.229L99.1509 103.107L78.9959 102.17L54.9404 116.645Z" fill="white" stroke="#252A34" stroke-width="0.785246" stroke-miterlimit="10"/>
<path d="M60.2204 115.45C64.8459 116.228 69.4279 117.18 73.9809 118.29C74.2564 118.362 74.3724 117.944 74.0969 117.872C69.5439 116.761 64.9474 115.81 60.3364 115.031C60.0609 114.988 59.9304 115.406 60.2204 115.45Z" fill="#252A34"/>
<path d="M60.4085 115.103C66.4695 111.427 72.5305 107.736 78.5915 104.06C78.8235 103.915 78.606 103.541 78.374 103.685C72.313 107.361 66.252 111.052 60.191 114.728C59.959 114.886 60.1765 115.261 60.4085 115.103Z" fill="#252A34"/>
<path d="M78.6931 103.843C82.8981 104.189 87.1176 104.39 91.3516 104.477C91.6271 104.477 91.6271 104.044 91.3516 104.044C87.1321 103.972 82.9126 103.756 78.6931 103.41C78.4031 103.381 78.4031 103.814 78.6931 103.843Z" fill="#252A34"/>
<path d="M74.1255 118.258C79.853 113.587 85.624 108.959 91.424 104.404C91.6415 104.231 91.337 103.928 91.1195 104.101C85.305 108.671 79.5485 113.284 73.821 117.955C73.6035 118.128 73.9225 118.446 74.1255 118.258Z" fill="#252A34"/>
<path d="M62.3646 113.934C66.6131 114.77 70.8326 115.751 75.0085 116.875C75.284 116.947 75.4 116.529 75.1245 116.457C70.9486 115.333 66.7291 114.338 62.4806 113.516C62.2051 113.459 62.0891 113.877 62.3646 113.934Z" fill="#252A34"/>
<path d="M65.4681 112.205C69.3541 112.969 73.1821 114.036 76.9086 115.391C77.1696 115.492 77.2856 115.074 77.0246 114.973C73.2981 113.618 69.4701 112.565 65.5841 111.787C65.3086 111.729 65.1926 112.147 65.4681 112.205Z" fill="#252A34"/>
<path d="M75.792 114.684C78.4455 112.68 81.1135 110.662 83.767 108.658C83.9845 108.485 83.767 108.11 83.5495 108.283C80.896 110.287 78.228 112.306 75.5745 114.309C75.357 114.482 75.5745 114.857 75.792 114.684Z" fill="#252A34"/>
<path d="M68.2952 110.433C71.3257 111.241 74.3127 112.178 77.2562 113.244C77.5172 113.345 77.6332 112.927 77.3722 112.826C74.4287 111.76 71.4417 110.822 68.4112 110.015C68.1357 109.943 68.0197 110.361 68.2952 110.433Z" fill="#252A34"/>
<path d="M71.484 108.586C74.326 109.278 77.0955 110.229 79.7635 111.44C80.01 111.555 80.242 111.181 79.981 111.065C77.284 109.84 74.4855 108.874 71.6 108.168C71.339 108.11 71.223 108.528 71.484 108.586Z" fill="#252A34"/>
<path d="M73.9948 107.043C76.7208 107.937 79.4323 108.831 82.1583 109.739C82.4193 109.826 82.5353 109.407 82.2743 109.321C79.5483 108.427 76.8368 107.533 74.1108 106.625C73.8498 106.538 73.7338 106.957 73.9948 107.043Z" fill="#252A34"/>
<path d="M75.9642 105.517C79.4152 106.252 82.8517 106.987 86.3027 107.723C86.5782 107.78 86.6942 107.362 86.4187 107.304C82.9677 106.569 79.5312 105.834 76.0802 105.099C75.8047 105.041 75.6887 105.459 75.9642 105.517Z" fill="#252A34"/>
<path d="M83.78 108.587C84.273 108.327 84.6935 107.981 85.0416 107.549C85.2156 107.332 84.9111 107.03 84.7371 107.246C84.4035 107.649 84.012 107.967 83.5625 108.212C83.316 108.341 83.5335 108.716 83.78 108.587Z" fill="#252A34"/>
<path d="M78.1692 104.52C81.5912 105.212 85.0132 105.904 88.4207 106.581C88.6962 106.639 88.8122 106.221 88.5367 106.163C85.1147 105.471 81.6928 104.779 78.2853 104.102C78.0098 104.044 77.8937 104.462 78.1692 104.52Z" fill="#252A34"/>
<path d="M65.6136 114.468C70.6016 111.253 75.4881 107.894 80.2585 104.391C80.476 104.232 80.2585 103.857 80.041 104.016C75.2706 107.534 70.3841 110.893 65.3961 114.093C65.1641 114.252 65.3816 114.627 65.6136 114.468Z" fill="#252A34"/>
<path d="M68.7607 115.159C73.6182 111.598 78.4902 108.037 83.3477 104.476C83.5652 104.318 83.3477 103.943 83.1302 104.101C78.2727 107.662 73.4007 111.223 68.5432 114.784C68.3257 114.943 68.5432 115.317 68.7607 115.159Z" fill="#252A34"/>
<path d="M71.7895 115.967C76.4585 112.031 81.2435 108.24 86.1445 104.607C86.362 104.448 86.1445 104.073 85.927 104.232C80.997 107.894 76.1685 111.7 71.485 115.664C71.2675 115.837 71.5865 116.14 71.7895 115.967Z" fill="#252A34"/>
<path d="M42.9902 93.3763C46.9777 101.132 50.9652 108.889 54.9527 116.645C62.9712 111.815 70.9897 107 79.0082 102.17C75.8037 95.5243 72.5847 88.8927 69.3802 82.2466C60.5787 85.9517 51.7772 89.6568 42.9902 93.3763Z" fill="white" stroke="#252A34" stroke-width="0.785246" stroke-miterlimit="10"/>
<path d="M45.0811 93.9965C48.6046 100.7 52.1281 107.39 55.6516 114.093C62.7421 109.927 69.8181 105.761 76.9086 101.58C74.0666 95.8419 71.2391 90.104 68.3971 84.3662C60.6251 87.5811 52.8531 90.796 45.0811 93.9965Z" fill="white" stroke="#252A34" stroke-width="0.785246" stroke-miterlimit="10"/>
<path d="M53.9713 99.0706C54.5078 100.08 55.1023 101.046 55.7693 101.968C55.8418 102.069 55.9578 102.098 56.0738 102.04C60.1918 99.9212 64.3098 97.8164 68.4278 95.6971C68.6743 95.5674 68.4568 95.1926 68.2103 95.3223C64.0923 97.4416 59.9743 99.5464 55.8563 101.666C55.9578 101.694 56.0593 101.723 56.1608 101.738C55.4938 100.815 54.8848 99.8491 54.3628 98.84C54.2178 98.5949 53.8408 98.8256 53.9713 99.0706Z" fill="#828282"/>
<path d="M54.6192 98.9111C57.1857 98.0605 59.4622 96.6333 61.7967 95.3214C63.0147 94.6294 64.2617 93.9662 65.5667 93.4472C65.8567 93.3319 66.1612 93.231 66.4512 93.13C66.6687 93.058 67.2342 92.784 67.4807 92.8273C67.8287 92.8994 67.8432 93.5049 67.9012 93.7788C67.9882 94.2113 68.0897 94.6294 68.1767 95.0619C68.2347 95.3358 68.6552 95.2205 68.5972 94.9465C68.5102 94.514 68.4087 94.096 68.3217 93.6635C68.2492 93.3607 68.2492 92.9426 68.0752 92.6543C67.8287 92.2362 67.3937 92.3948 67.0167 92.4957C65.5957 92.885 64.2327 93.5049 62.9277 94.1825C60.1292 95.653 57.5192 97.4839 54.5032 98.4786C54.2277 98.5795 54.3437 98.9976 54.6192 98.9111Z" fill="#828282"/>
<path d="M61.4076 95.2495C61.9876 96.1865 62.5676 97.1236 63.1476 98.0607C63.2926 98.2914 63.6696 98.0751 63.5246 97.8445C62.9446 96.9074 62.3646 95.9703 61.7846 95.0332C61.6396 94.7881 61.2626 95.0188 61.4076 95.2495Z" fill="#828282"/>
<path d="M59.0029 92.9434C59.3944 92.8137 59.7714 92.6984 60.1629 92.5686C60.0759 92.4821 59.9889 92.3956 59.9019 92.3091C59.6554 93.2318 59.6989 94.1544 60.0469 95.0483C60.1484 95.3078 60.5689 95.1924 60.4674 94.9329C60.1484 94.1112 60.1049 93.275 60.3224 92.4244C60.3659 92.2659 60.2209 92.1073 60.0614 92.1649C59.6699 92.2947 59.2929 92.41 58.9014 92.5398C58.6114 92.6119 58.7274 93.0299 59.0029 92.9434Z" fill="#828282"/>
<path d="M59.3911 94.1263C59.8551 93.5929 60.4496 93.2469 61.1456 93.1027C61.4211 93.0451 61.3051 92.627 61.0296 92.6846C60.2611 92.8288 59.5796 93.2181 59.0721 93.8091C58.9126 94.0254 59.2171 94.3281 59.3911 94.1263Z" fill="#828282"/>
<path d="M62.0602 93.1734C61.8282 92.8129 61.5527 92.4093 61.5672 91.9624C61.5817 91.6452 61.9297 91.1406 62.3212 91.328C62.6402 91.4866 62.7562 92.1642 62.7272 92.4814C62.6837 92.885 62.2922 93.3031 61.8717 93.058C61.6252 92.9139 61.4077 93.2887 61.6542 93.4329C62.1617 93.7212 62.7852 93.4761 63.0317 92.9715C63.3072 92.4237 63.1332 91.4578 62.6547 91.0541C62.2342 90.6937 61.6252 90.9388 61.3352 91.3424C60.8567 92.0056 61.3062 92.8129 61.6832 93.404C61.8427 93.6203 62.2197 93.404 62.0602 93.1734Z" fill="#828282"/>
<path d="M64.2774 89.9589C64.1903 90.8671 64.1032 91.7754 64.016 92.6692C63.987 92.9431 64.4226 92.9431 64.4516 92.6692C64.5387 91.7609 64.6259 90.8527 64.713 89.9589C64.742 89.6849 64.3064 89.6849 64.2774 89.9589Z" fill="#828282"/>
<path d="M63.409 90.1771C63.6849 90.1771 63.6849 89.7446 63.409 89.7446C63.1332 89.7446 63.1332 90.1771 63.409 90.1771Z" fill="#828282"/>
<path d="M65.7303 92.0639C66.0062 92.0639 66.0062 91.6313 65.7303 91.6313C65.4545 91.6313 65.4545 92.0639 65.7303 92.0639Z" fill="#828282"/>
<path d="M57.2897 103.28C58.3772 102.992 59.4502 102.617 60.4652 102.141C61.5672 101.622 62.5387 100.801 63.6697 100.354C64.6557 99.9645 65.6417 99.7338 66.5552 99.186C67.4107 98.667 68.1647 97.9894 68.8027 97.2253C68.9767 97.009 68.6722 96.7063 68.4982 96.9225C67.8312 97.7299 67.0627 98.4219 66.1492 98.9409C65.2357 99.4599 64.2207 99.6473 63.2782 100.08C62.3067 100.527 61.4512 101.204 60.4797 101.68C59.4212 102.199 58.3192 102.588 57.1737 102.891C56.9127 102.934 57.0142 103.352 57.2897 103.28Z" fill="#828282"/>
<path d="M162.491 49.6506C161.665 50.4291 161.404 51.3662 161.288 51.7842C160.258 55.6191 160.244 57.8392 160.244 57.8392C160.215 62.4237 159.649 61.2272 159.417 67.7291C159.33 70.2232 159.316 73.2939 159.49 76.7972C158.924 77.6333 158.127 78.9741 157.518 80.7473C156.793 82.8233 156.3 84.2217 156.923 85.6346C157.721 87.4655 159.881 88.1431 160.418 88.3161C161.52 88.6621 161.984 88.4746 164.608 88.8783C165.507 89.0225 166.232 89.1667 166.725 89.2676C166.305 90.1326 165.681 91.4012 165.261 92.2662C164.333 94.1692 163.405 96.0722 162.477 97.9752C163.376 98.4942 164.666 99.2295 166.247 100.066C169.611 101.853 171.293 102.747 173.134 103.367C174.323 103.771 177.02 104.578 180.529 104.679C182.922 104.751 184.647 104.463 187.344 104.016C190.041 103.569 192.245 103.021 193.782 102.589C194.072 101.089 194.449 99.1862 194.942 97.0093C195.073 96.4182 195.711 93.6646 196.726 89.8875C197.393 87.4366 198.248 84.438 199.35 80.9924C197.987 80.7761 196.624 80.5455 195.261 80.3292C196.262 78.6281 197.132 77.2729 197.726 76.3358C198.393 75.2978 199.669 73.3516 200.8 70.7133C201.25 69.6609 201.525 68.8392 201.221 67.9742C200.829 66.8785 199.713 66.3739 199.466 66.2586C198.48 65.8117 197.596 65.9414 196.349 66.0856C194.855 66.2586 193.333 66.2874 191.839 66.4892C190.201 66.7055 187.837 66.8352 184.749 66.3595C184.589 63.7501 184.56 61.6164 184.575 60.1171C184.604 57.104 184.763 55.4749 183.705 54.6964C183.487 54.5378 183.284 54.4513 181.066 54.1486C179.703 53.9612 179.021 53.8747 177.789 53.7449C176.397 53.6007 174.454 53.3989 172.337 52.7934C169.48 51.9861 168.059 51.5824 166.74 50.357C165.928 49.5929 165.406 48.7567 164.42 48.7279C163.521 48.6847 162.738 49.4199 162.491 49.6506Z" fill="white"/>
<path opacity="0.2" d="M172.103 91.8335C172.451 93.1166 173.205 95.1926 175.003 96.9515C177.801 99.705 181.455 100.065 185.457 100.455C187.502 100.657 190.561 100.772 194.273 100.152C194.578 98.6959 194.984 96.9082 195.477 94.861C195.796 93.5203 196.463 90.8244 197.434 87.422C197.971 85.5479 198.609 83.3854 199.377 80.9778C198.13 80.6895 196.883 80.4011 195.636 80.1128C194.36 82.2753 193.331 84.0485 192.62 85.274C190.576 88.8637 189.561 90.7523 187.574 94.0393C186.835 95.2647 186.211 96.2739 185.805 96.9226C185.182 96.9659 184.312 96.9947 183.282 96.9226C182.543 96.865 179.44 96.591 175.974 94.6736C174.959 94.1114 173.553 93.2175 172.103 91.8335Z" fill="#BDBDBD"/>
<path opacity="0.22" d="M184.123 67.471C184.906 68.0765 185.993 69.0568 186.979 70.5273C187.182 70.8301 188.342 72.6033 188.864 75.0397C189.647 78.6871 188.56 81.7723 187.733 84.0646C185.747 89.5285 182.339 93.3777 179.787 95.7132C180.28 96.0736 181.005 96.5061 181.933 96.7945C183.615 97.3279 185.08 97.126 185.834 96.9675C189.531 90.8115 192.576 85.7369 195.157 81.5561C196.303 79.6963 198.202 76.64 200.029 72.2141C200.667 70.6859 201.117 69.3884 201.407 68.5234C201.16 67.9035 200.624 66.8078 199.493 66.2744C198.681 65.8851 197.898 65.9428 197.521 65.9716C192.997 66.3753 190.735 66.5771 190.343 66.6348C188.69 66.8655 186.225 66.9376 183.021 66.0293C183.412 66.5051 183.76 66.9808 184.123 67.471Z" fill="#BDBDBD"/>
<path opacity="0.18" d="M160.24 58.7494C160.979 61.3444 161.719 63.9394 162.458 66.5488C165.996 63.6366 169.534 60.71 173.072 57.7979C170.825 60.0324 169.027 62.1229 167.62 63.8961C166.982 64.7034 164.909 67.3705 162.603 71.1765C161.284 73.3534 160.269 75.2853 159.5 76.8279C159.399 74.9393 159.341 72.9642 159.37 70.9026C159.413 66.4767 159.747 62.4112 160.24 58.7494Z" fill="#BDBDBD"/>
<path d="M163.577 70.1821C164.838 68.1205 166.201 66.1166 167.666 64.1848C169.13 62.253 170.667 60.1914 172.436 58.5335C174.727 56.3998 176.946 59.1534 178.352 60.8834C179.744 62.599 181.078 64.3578 182.514 66.0301C184.094 67.8466 185.805 69.5478 187.792 70.9318C188.024 71.0904 188.241 70.7155 188.009 70.557C184.007 67.789 181.252 63.7235 178.193 60.0184C177.033 58.6055 175.191 56.5872 173.147 57.4955C172.161 57.928 171.436 58.9371 170.74 59.7156C169.87 60.7104 169.014 61.7195 168.202 62.7575C166.39 65.0498 164.722 67.4574 163.185 69.9515C163.055 70.1965 163.432 70.4128 163.577 70.1821Z" fill="#252A34"/>
<path d="M182.989 66.2305C186.121 66.9657 189.354 67.1531 192.53 66.7639C194.11 66.5621 195.691 66.0863 197.286 66.0719C198.808 66.0575 200.621 66.6918 201.128 68.2921C201.389 69.1427 201.027 69.8923 200.635 70.6276C200.244 71.3772 199.838 72.1125 199.432 72.8477C198.62 74.3327 197.808 75.8031 196.996 77.2881C195.357 80.2435 193.69 83.1701 191.993 86.0822C190.065 89.3981 188.093 92.6995 186.092 95.9865C185.947 96.2316 186.324 96.4478 186.469 96.2027C190.282 89.9603 193.965 83.6458 197.518 77.2448C198.388 75.6878 199.243 74.1308 200.084 72.5594C200.722 71.3916 201.839 69.9788 201.636 68.566C201.476 67.3982 200.534 66.4756 199.49 66.0142C198.199 65.4376 196.735 65.5961 195.386 65.8268C193.342 66.1728 191.341 66.5188 189.253 66.5188C187.179 66.5188 185.106 66.2737 183.09 65.798C182.844 65.7547 182.728 66.1728 182.989 66.2305Z" fill="#252A34"/>
<path d="M163.793 68.8248C161.778 72.0109 159.922 75.2979 158.269 78.6858C156.993 81.3096 155.122 84.9138 157.877 87.2637C160.4 89.4118 164.054 88.6765 167.027 89.5848C170.362 90.594 173.073 92.8718 176.031 94.6018C179.076 96.3895 182.803 97.7735 186.297 96.4904C186.558 96.3895 186.442 95.9714 186.181 96.0723C179.7 98.4222 174.262 92.1942 168.868 89.8155C167.549 89.2244 166.171 88.8495 164.736 88.691C163.054 88.4891 161.314 88.5035 159.733 87.8692C158.138 87.2349 156.891 85.9806 156.862 84.193C156.833 82.4197 157.776 80.7185 158.53 79.1615C160.212 75.6871 162.097 72.3136 164.17 69.0555C164.315 68.8104 163.938 68.5797 163.793 68.8248Z" fill="#252A34"/>
<path d="M159.734 76.7995C159.517 72.4889 159.56 68.1639 159.865 63.8678C160.024 61.6476 160.256 59.4274 160.561 57.2073C160.807 55.3764 160.981 53.4301 161.561 51.6713C161.779 51.0081 162.098 50.3017 162.634 49.8115C163.49 49.0186 164.563 49.2349 165.505 49.7539C167.173 50.6477 168.782 51.5559 170.551 52.2335C172.378 52.9399 174.292 53.4589 176.221 53.7905C177.975 54.0933 179.715 54.1221 181.484 54.2519C182.383 54.3095 183.485 54.4825 184.022 55.2899C184.631 56.2269 184.37 57.9137 184.384 58.9805C184.413 61.4602 184.442 63.9543 184.471 66.4339C184.471 66.7079 184.906 66.7079 184.906 66.4339C184.877 64.0408 184.848 61.6476 184.819 59.2689C184.805 57.683 185.254 55.2899 183.601 54.3384C182.18 53.5166 180.237 53.8049 178.671 53.6752C176.482 53.4878 174.307 53.0409 172.204 52.3777C170.102 51.7001 168.101 50.7919 166.201 49.6818C164.882 48.9177 163.374 48.3699 162.17 49.6385C161.068 50.7919 160.836 52.5363 160.575 54.0356C160.198 56.2702 159.894 58.5192 159.662 60.7826C159.125 66.1024 158.995 71.4654 159.256 76.7995C159.314 77.0879 159.749 77.0879 159.734 76.7995Z" fill="#252A34"/>
<path d="M166.448 89.5999C165.737 90.9695 165.012 92.3247 164.302 93.6943C163.939 94.3719 163.591 95.0639 163.229 95.7414C162.924 96.3181 162.504 96.9092 162.315 97.5291C162.228 97.8319 162.243 98.0914 162.489 98.3076C162.953 98.7401 163.722 98.9852 164.273 99.2735C165.607 99.9655 166.941 100.672 168.275 101.364C170.74 102.647 173.277 103.858 176.018 104.435C178.773 105.011 181.615 105.011 184.413 104.694C187.618 104.334 190.764 103.57 193.882 102.806C194.157 102.734 194.041 102.315 193.766 102.388C188.662 103.642 183.369 104.925 178.077 104.334C172.697 103.728 167.927 100.715 163.229 98.2355C163.272 98.2499 162.866 98.0769 162.837 98.0193C162.678 97.803 162.866 97.4282 162.953 97.2264C163.113 96.8371 163.359 96.4479 163.562 96.073C163.925 95.3954 164.273 94.7034 164.635 94.0259C165.375 92.613 166.114 91.2146 166.839 89.8018C166.955 89.5711 166.578 89.3549 166.448 89.5999Z" fill="#252A34"/>
<path d="M195.231 80.3443C196.667 80.3731 198.03 80.6614 199.349 81.2093C199.306 81.1228 199.248 81.0363 199.204 80.9498C196.942 88.0139 195.072 95.1934 193.607 102.445C193.549 102.719 193.97 102.834 194.028 102.56C195.492 95.2943 197.363 88.1148 199.625 81.0651C199.668 80.9498 199.581 80.8488 199.48 80.8056C198.131 80.2433 196.71 79.955 195.246 79.9262C194.941 79.8974 194.941 80.3298 195.231 80.3443Z" fill="#252A34"/>
<path d="M129.326 91.7026C125.599 96.6187 121.858 101.52 118.117 106.408C108.547 118.921 98.9194 131.377 89.2334 143.804C89.9004 143.92 90.9009 144.194 91.9739 144.828C92.9309 145.39 93.6124 146.053 94.0184 146.529C107.953 128.609 121.887 110.675 135.836 92.7551C133.661 92.3946 131.501 92.0486 129.326 91.7026Z" fill="white" stroke="#252A34" stroke-width="0.785246" stroke-miterlimit="10"/>
<path d="M82.7521 135.226C82.2011 135.543 82.4766 136.984 82.5781 137.547C83.1726 140.646 84.1586 146.298 85.4636 153.837C87.2181 154.083 88.987 154.342 90.7415 154.587C91.9885 152.324 93.25 150.06 94.497 147.782C94.3375 147.379 94.091 146.773 93.7285 146.081C92.9021 144.553 92.032 143.616 91.075 142.578C88.088 139.363 87.3486 138.498 85.5796 136.956C83.7961 135.384 83.1291 135.009 82.7521 135.226Z" fill="white" stroke="#252A34" stroke-width="0.785246" stroke-miterlimit="10"/>
<path d="M83.3046 136.654C85.3346 138.859 86.1031 142.002 87.0891 144.741C88.2201 147.855 89.3366 150.955 90.4676 154.069C90.5546 154.328 90.9751 154.213 90.8881 153.954C89.6991 150.667 88.5101 147.38 87.3211 144.078C86.3641 141.425 85.5811 138.47 83.6236 136.336C83.4351 136.135 83.1161 136.437 83.3046 136.654Z" fill="#252A34"/>
<path d="M92.6261 139.768C94.4531 139.393 96.3236 140.546 96.8166 142.32C96.8891 142.594 97.3096 142.478 97.2371 142.204C96.6716 140.186 94.5546 138.932 92.5101 139.35C92.2346 139.407 92.3506 139.826 92.6261 139.768Z" fill="#252A34"/>
<path d="M95.8009 135.775C97.5554 135.502 99.2664 136.727 99.5999 138.457C99.6579 138.731 100.078 138.616 100.02 138.342C99.6434 136.367 97.6714 135.04 95.6849 135.357C95.4094 135.401 95.5254 135.819 95.8009 135.775Z" fill="#252A34"/>
<path d="M99.2679 131.32C101.153 130.527 103.212 131.753 103.415 133.771C103.444 134.045 103.879 134.045 103.85 133.771C103.618 131.392 101.254 130.023 99.0504 130.945C98.7894 131.061 99.0069 131.435 99.2679 131.32Z" fill="#252A34"/>
<path d="M101.98 127.658C103.024 127.327 104.039 127.197 104.923 127.975C105.59 128.566 105.88 129.417 106.011 130.282C106.054 130.556 106.475 130.441 106.431 130.167C106.286 129.143 105.88 128.134 105.01 127.5C104.024 126.764 102.98 126.894 101.864 127.24C101.603 127.327 101.719 127.745 101.98 127.658Z" fill="#252A34"/>
<path d="M104.969 123.563C106.97 122.885 109.058 124.139 109.276 126.244C109.305 126.518 109.74 126.518 109.711 126.244C109.464 123.865 107.144 122.352 104.853 123.145C104.592 123.231 104.708 123.649 104.969 123.563Z" fill="#252A34"/>
<path d="M108.448 119.226C110.42 118.721 112.29 119.976 112.595 121.965C112.638 122.239 113.059 122.124 113.015 121.85C112.682 119.615 110.521 118.246 108.332 118.808C108.071 118.88 108.187 119.298 108.448 119.226Z" fill="#252A34"/>
<path d="M111.172 115.649C112.028 115.058 113.13 115.26 113.898 115.894C114.696 116.557 115.087 117.538 115.406 118.504C115.493 118.763 115.914 118.648 115.827 118.388C115.45 117.249 114.942 116.038 113.884 115.346C112.999 114.77 111.825 114.669 110.94 115.274C110.723 115.433 110.94 115.808 111.172 115.649Z" fill="#252A34"/>
<path d="M114.145 112.202C114.942 111.712 115.928 112.072 116.697 112.462C117.538 112.894 118.06 113.615 118.248 114.523C118.306 114.797 118.727 114.682 118.669 114.408C118.437 113.312 117.741 112.476 116.726 112C115.841 111.582 114.812 111.279 113.913 111.827C113.695 111.971 113.913 112.346 114.145 112.202Z" fill="#252A34"/>
<path d="M117.191 107.993C119.076 107.402 121.033 108.267 121.787 110.113C121.889 110.026 122.005 109.954 122.106 109.868C122.063 109.839 122.019 109.824 121.961 109.796C121.715 109.68 121.483 110.041 121.744 110.17C121.787 110.199 121.831 110.214 121.889 110.242C122.034 110.315 122.28 110.185 122.208 109.997C121.381 107.95 119.206 106.912 117.075 107.59C116.814 107.662 116.93 108.08 117.191 107.993Z" fill="#252A34"/>
<path d="M120.31 103.842C122.398 103.424 124.283 104.923 124.37 107.028C124.384 107.302 124.819 107.302 124.805 107.028C124.703 104.62 122.572 102.963 120.194 103.424C119.918 103.482 120.034 103.9 120.31 103.842Z" fill="#252A34"/>
<path d="M122.889 100.298C124.934 99.5481 127.065 100.701 127.529 102.835C127.587 103.109 128.008 102.994 127.95 102.72C127.457 100.384 125.035 99.0579 122.773 99.8797C122.512 99.9662 122.628 100.384 122.889 100.298Z" fill="#252A34"/>
<path d="M125.586 97.2673C127.602 96.5897 129.632 97.743 130.052 99.819C130.11 100.093 130.531 99.9776 130.473 99.7037C130.009 97.4114 127.689 96.0995 125.47 96.8492C125.209 96.9357 125.325 97.3538 125.586 97.2673Z" fill="#252A34"/>
<path d="M127.876 93.8511C129.776 93.5051 132.11 94.0097 132.676 96.1145C132.748 96.3884 133.169 96.2731 133.096 95.9992C132.458 93.6493 129.892 93.0582 127.76 93.433C127.485 93.4907 127.601 93.9088 127.876 93.8511Z" fill="#252A34"/>
<path opacity="0.29" d="M132.792 92.2495C127.702 99.083 122.584 105.888 117.422 112.664C109.287 123.346 101.051 133.957 92.7429 144.496C90.5244 141.165 88.2334 139.104 86.5659 137.821C86.3629 137.676 83.5064 135.5 83.1439 135.874C82.8684 136.163 84.1299 137.777 85.1739 139.046C86.5659 142.506 87.9144 146.125 89.2049 149.873C89.7414 151.444 90.2634 153.016 90.7564 154.558C92.4384 151.271 94.1059 147.984 95.7879 144.712C98.6734 140.949 103.023 135.283 105.923 131.521C115.885 118.574 125.846 105.643 135.837 92.7253C134.807 92.5811 133.807 92.4225 132.792 92.2495Z" fill="#BDBDBD"/>
<path d="M147.35 95.7554C143.624 100.671 139.883 105.573 136.142 110.46C126.572 122.974 116.944 135.43 107.258 147.857C107.925 147.973 108.925 148.246 109.998 148.881C110.955 149.443 111.637 150.106 112.043 150.582C125.977 132.662 139.912 114.728 153.861 96.8078C151.671 96.4474 149.511 96.1014 147.35 95.7554Z" fill="white" stroke="#252A34" stroke-width="0.785246" stroke-miterlimit="10"/>
<path d="M100.761 139.278C100.21 139.595 100.485 141.037 100.587 141.599C101.181 144.699 102.167 150.35 103.472 157.89C105.227 158.135 106.996 158.395 108.75 158.64C109.997 156.376 111.259 154.113 112.506 151.835C112.346 151.432 112.1 150.826 111.737 150.134C110.911 148.606 110.041 147.669 109.084 146.631C106.097 143.416 105.357 142.551 103.588 141.008C101.805 139.422 101.138 139.062 100.761 139.278Z" fill="white" stroke="#252A34" stroke-width="0.785246" stroke-miterlimit="10"/>
<path d="M101.326 140.691C103.356 142.897 104.124 146.04 105.11 148.779C106.241 151.893 107.358 154.992 108.489 158.106C108.576 158.366 108.996 158.25 108.909 157.991C107.72 154.704 106.531 151.417 105.342 148.116C104.385 145.463 103.602 142.507 101.645 140.374C101.442 140.186 101.137 140.489 101.326 140.691Z" fill="#252A34"/>
<path d="M110.635 143.821C112.462 143.446 114.332 144.599 114.825 146.372C114.898 146.646 115.318 146.531 115.246 146.257C114.68 144.239 112.563 142.984 110.519 143.403C110.243 143.46 110.359 143.864 110.635 143.821Z" fill="#252A34"/>
<path d="M113.81 139.813C115.564 139.539 117.275 140.764 117.609 142.494C117.667 142.768 118.087 142.653 118.029 142.379C117.652 140.404 115.68 139.077 113.694 139.394C113.418 139.438 113.534 139.856 113.81 139.813Z" fill="#252A34"/>
<path d="M117.277 135.373C119.162 134.58 121.221 135.805 121.424 137.824C121.453 138.098 121.888 138.098 121.859 137.824C121.627 135.445 119.263 134.075 117.059 134.998C116.798 135.113 117.016 135.488 117.277 135.373Z" fill="#252A34"/>
<path d="M120.002 131.711C121.046 131.379 122.061 131.25 122.946 132.028C123.613 132.619 123.903 133.47 124.033 134.335C124.077 134.609 124.497 134.493 124.454 134.219C124.309 133.196 123.903 132.187 123.033 131.552C122.047 130.817 121.003 130.947 119.886 131.293C119.611 131.379 119.727 131.797 120.002 131.711Z" fill="#252A34"/>
<path d="M122.973 127.601C124.974 126.923 127.062 128.177 127.28 130.282C127.309 130.556 127.744 130.556 127.715 130.282C127.468 127.903 125.148 126.39 122.857 127.183C122.596 127.284 122.712 127.702 122.973 127.601Z" fill="#252A34"/>
<path d="M126.471 123.279C128.443 122.774 130.313 124.028 130.618 126.018C130.661 126.292 131.082 126.176 131.038 125.903C130.705 123.668 128.544 122.298 126.355 122.861C126.079 122.933 126.195 123.351 126.471 123.279Z" fill="#252A34"/>
<path d="M129.181 119.702C130.037 119.111 131.139 119.313 131.907 119.947C132.705 120.61 133.096 121.591 133.415 122.556C133.502 122.816 133.923 122.701 133.836 122.441C133.459 121.302 132.951 120.091 131.893 119.399C131.008 118.823 129.834 118.722 128.949 119.327C128.732 119.486 128.949 119.861 129.181 119.702Z" fill="#252A34"/>
<path d="M132.154 116.255C132.951 115.765 133.937 116.125 134.706 116.514C135.547 116.947 136.069 117.668 136.257 118.576C136.315 118.85 136.736 118.734 136.678 118.461C136.446 117.365 135.75 116.529 134.735 116.053C133.85 115.635 132.821 115.332 131.922 115.88C131.704 116.024 131.922 116.399 132.154 116.255Z" fill="#252A34"/>
<path d="M135.199 112.045C137.084 111.454 139.041 112.319 139.795 114.164C139.897 114.078 140.013 114.006 140.114 113.919C140.071 113.891 140.027 113.876 139.969 113.847C139.723 113.732 139.491 114.092 139.752 114.222C139.795 114.251 139.839 114.265 139.897 114.294C140.042 114.366 140.288 114.237 140.216 114.049C139.389 112.002 137.214 110.964 135.083 111.642C134.822 111.714 134.938 112.132 135.199 112.045Z" fill="#252A34"/>
<path d="M138.331 107.88C140.419 107.462 142.304 108.961 142.391 111.066C142.406 111.34 142.841 111.34 142.826 111.066C142.725 108.659 140.593 107.001 138.215 107.462C137.94 107.52 138.056 107.938 138.331 107.88Z" fill="#252A34"/>
<path d="M140.898 104.333C142.942 103.583 145.074 104.737 145.538 106.87C145.596 107.144 146.016 107.029 145.958 106.755C145.465 104.419 143.044 103.093 140.782 103.915C140.521 104.016 140.637 104.434 140.898 104.333Z" fill="#252A34"/>
<path d="M143.608 101.305C145.624 100.628 147.654 101.781 148.074 103.857C148.132 104.131 148.553 104.016 148.495 103.742C148.031 101.45 145.711 100.138 143.492 100.887C143.231 100.988 143.333 101.406 143.608 101.305Z" fill="#252A34"/>
<path d="M145.886 97.9048C147.785 97.5588 150.12 98.0634 150.685 100.168C150.758 100.442 151.178 100.327 151.106 100.053C150.468 97.703 147.901 97.1119 145.77 97.4867C145.494 97.53 145.61 97.948 145.886 97.9048Z" fill="#252A34"/>
<path opacity="0.29" d="M150.801 96.3022C145.711 103.136 140.593 109.94 135.431 116.716C127.296 127.399 119.06 138.01 110.752 148.548C108.533 145.218 106.242 143.156 104.575 141.873C104.372 141.729 101.515 139.552 101.153 139.927C100.877 140.215 102.139 141.83 103.183 143.099C104.575 146.559 105.923 150.177 107.214 153.926C107.75 155.497 108.272 157.068 108.765 158.611C110.447 155.324 112.115 152.037 113.797 148.765C116.682 145.002 121.032 139.336 123.932 135.573C133.894 122.627 143.855 109.695 153.846 96.778C152.831 96.6338 151.816 96.4608 150.801 96.3022Z" fill="#BDBDBD"/>
<path d="M122.961 56.0669C121.757 57.6239 120.322 59.7143 119.017 62.3526C118.596 63.2031 117.262 65.9567 116.247 69.7916C115.667 71.9685 115.102 74.823 114.928 78.2253C116.566 78.4704 118.205 78.7011 119.843 78.9461C120.264 75.8754 121.047 72.1559 122.482 68.0904C123.628 64.8466 124.947 62.0642 126.223 59.7576C125.136 58.5321 124.048 57.3067 122.961 56.0669Z" fill="white" stroke="#252A34" stroke-width="0.785246" stroke-miterlimit="10"/>
<path d="M115.35 76.4671C116.713 75.4867 118.641 75.6741 119.758 76.9284C119.946 77.1302 120.251 76.8275 120.062 76.6256C118.815 75.2417 116.64 74.9966 115.132 76.0922C114.915 76.2508 115.132 76.6257 115.35 76.4671Z" fill="#252A34"/>
<path d="M115.608 73.3661C117.043 71.7658 119.624 72.3137 120.233 74.3897C120.306 74.6492 120.726 74.5483 120.654 74.2744C119.943 71.8956 116.971 71.2036 115.303 73.0633C115.115 73.2652 115.419 73.5679 115.608 73.3661Z" fill="#252A34"/>
<path d="M116.276 70.409C117.711 68.7222 120.379 69.2845 120.959 71.4325C121.032 71.7065 121.452 71.5911 121.38 71.3172C120.727 68.8664 117.624 68.1456 115.971 70.0918C115.783 70.308 116.087 70.6252 116.276 70.409Z" fill="#252A34"/>
<path d="M117.104 67.7582C117.742 66.9797 118.801 66.7203 119.743 67.0662C120.7 67.4122 121.353 68.2628 121.773 69.1422C121.889 69.3873 122.266 69.1711 122.15 68.926C121.657 67.8736 120.831 66.9077 119.671 66.5905C118.627 66.3022 117.481 66.6049 116.8 67.4555C116.626 67.6573 116.93 67.9745 117.104 67.7582Z" fill="#252A34"/>
<path d="M118.174 64.6575C119.117 64.052 120.132 63.9366 121.06 64.6719C121.741 65.2197 122.365 65.9406 122.626 66.7767C122.713 67.0362 123.133 66.9209 123.046 66.6614C122.713 65.6234 121.872 64.6142 120.944 64.052C119.972 63.4609 118.885 63.6916 117.971 64.2826C117.725 64.4412 117.942 64.8161 118.174 64.6575Z" fill="#252A34"/>
<path d="M119.552 61.8736C120.538 61.4988 121.524 61.297 122.38 62.0755C122.945 62.5945 123.554 63.373 123.714 64.137C123.83 64.065 123.96 63.9929 124.076 63.9208C124.033 63.892 123.989 63.8487 123.946 63.8199C123.728 63.6469 123.424 63.9496 123.641 64.1226C123.685 64.1515 123.728 64.1947 123.772 64.2235C123.946 64.3533 124.178 64.238 124.134 64.0073C123.931 63.0846 123.163 62.0755 122.409 61.5276C121.466 60.8356 120.451 61.0663 119.436 61.4411C119.175 61.5565 119.291 61.9745 119.552 61.8736Z" fill="#252A34"/>
<path d="M121.219 58.8456C123.336 58.1969 124.627 60.5324 124.743 62.2912C124.757 62.5651 125.192 62.5651 125.178 62.2912C125.033 60.2584 123.51 57.6923 121.103 58.4275C120.842 58.4996 120.958 58.9177 121.219 58.8456Z" fill="#252A34"/>
<path d="M153.6 58.8903C153.6 58.8903 155.963 73.6386 156.05 74.2441C156.152 74.864 154.861 96.9503 154.861 96.9503L162.169 90.1168C161.024 77.8338 159.878 65.5364 158.733 53.2534C157.036 55.142 155.311 57.0162 153.6 58.8903Z" fill="#252A34" stroke="#252A34" stroke-width="0.785246" stroke-miterlimit="10"/>
<path d="M122.787 55.4466L132.995 52.001L158.747 53.2552L153.6 58.8921L122.787 55.4466Z" fill="white" stroke="#252A34" stroke-width="0.785246" stroke-miterlimit="10"/>
<path d="M122.787 55.4463L127.906 74.7502C127.616 80.661 127.34 86.5863 127.05 92.4971C136.316 93.982 145.596 95.4669 154.861 96.9663C155.296 89.5994 155.717 82.2469 156.152 74.88L153.6 58.9063L122.787 55.4463Z" fill="white" stroke="#252A34" stroke-width="0.785246" stroke-miterlimit="10"/>
<path d="M143.277 61.8177C143.175 62.9422 143.277 64.0379 143.61 65.1192C143.697 65.3787 144.118 65.2777 144.031 65.0038C143.712 63.9514 143.61 62.899 143.712 61.8177C143.741 61.5438 143.306 61.5438 143.277 61.8177Z" fill="#252A34"/>
<path d="M143.583 61.9753C145.453 62.0618 147.324 62.1916 149.194 62.379C149.47 62.4078 149.47 61.9753 149.194 61.9465C147.324 61.7591 145.468 61.6149 143.583 61.5428C143.307 61.5284 143.307 61.9609 143.583 61.9753Z" fill="#252A34"/>
<path d="M143.9 65.4516C145.654 65.6823 147.423 65.7832 149.192 65.7544C149.468 65.7544 149.468 65.3219 149.192 65.3219C147.423 65.3507 145.654 65.2498 143.9 65.0191C143.624 64.9759 143.624 65.4084 143.9 65.4516Z" fill="#252A34"/>
<path d="M149.017 62.4359C149.438 63.3586 149.481 64.3533 149.162 65.3193C149.075 65.5788 149.496 65.6941 149.583 65.4346C149.931 64.3533 149.858 63.2577 149.394 62.2197C149.278 61.9602 148.901 62.1764 149.017 62.4359Z" fill="#252A34"/>
<path d="M149.613 63.2153C149.917 63.2008 150.207 63.4171 150.294 63.7198C150.352 63.9505 150.164 64.4263 149.874 64.21C149.656 64.037 149.439 64.4118 149.656 64.5848C150.149 64.9453 150.744 64.3974 150.758 63.8928C150.773 63.2873 150.222 62.7828 149.627 62.7972C149.337 62.7972 149.323 63.2297 149.613 63.2153Z" fill="#252A34"/>
<path d="M144.163 62.7822C144.133 63.4021 144.206 64.0076 144.366 64.6131C144.438 64.887 144.859 64.7717 144.787 64.4977C144.642 63.9355 144.584 63.3732 144.598 62.7822C144.613 62.4938 144.177 62.4938 144.163 62.7822Z" fill="#252A34"/>
<path d="M144.451 62.8265C144.799 62.841 145.147 62.8698 145.495 62.913C145.437 62.841 145.393 62.7689 145.335 62.7112C145.292 63.3311 145.306 63.951 145.364 64.5854C145.393 64.8593 145.828 64.8593 145.799 64.5854C145.727 63.9655 145.727 63.3455 145.77 62.7112C145.77 62.6247 145.698 62.5094 145.611 62.5094C145.219 62.4517 144.842 62.4085 144.451 62.394C144.175 62.394 144.175 62.8265 144.451 62.8265Z" fill="#252A34"/>
<path d="M144.61 64.8012C144.929 64.8445 145.248 64.8445 145.567 64.7868C145.843 64.7291 145.727 64.3111 145.451 64.3687C145.219 64.412 144.973 64.4264 144.726 64.3831C144.61 64.3687 144.494 64.412 144.465 64.5273C144.436 64.6282 144.494 64.7868 144.61 64.8012Z" fill="#252A34"/>
<path d="M146.076 62.682C145.974 63.3596 146.003 64.0372 146.163 64.7148C146.236 64.9887 146.657 64.8734 146.584 64.5994C146.439 64.0084 146.395 63.4029 146.497 62.7974C146.541 62.5234 146.119 62.4081 146.076 62.682Z" fill="#252A34"/>
<path d="M146.335 62.8392C146.625 62.9113 146.93 62.9834 147.22 63.0555C147.162 62.9834 147.118 62.9113 147.06 62.8537C147.104 63.4303 147.147 64.007 147.205 64.5692C147.234 64.8432 147.669 64.8432 147.64 64.5692C147.597 63.9926 147.553 63.4159 147.495 62.8537C147.481 62.7527 147.437 62.6662 147.336 62.6518C147.046 62.5797 146.741 62.5077 146.451 62.4356C146.176 62.3635 146.06 62.7816 146.335 62.8392Z" fill="#252A34"/>
<path d="M146.439 64.8284C146.787 65.0014 147.178 64.987 147.497 64.7852C147.744 64.641 147.512 64.2662 147.28 64.4104C147.091 64.5257 146.859 64.5401 146.656 64.4536C146.41 64.3383 146.192 64.7131 146.439 64.8284Z" fill="#252A34"/>
<path d="M147.726 62.8133C147.683 63.3468 147.654 63.9234 147.784 64.4424C147.886 64.8893 148.335 64.8605 148.712 64.774C148.988 64.7019 148.872 64.2838 148.596 64.3559C148.48 64.3848 148.379 64.3992 148.263 64.3992C148.19 64.428 148.161 64.3848 148.19 64.2694C148.147 64.1253 148.147 63.9378 148.147 63.7793C148.132 63.4621 148.132 63.1449 148.161 62.8133C148.19 62.5394 147.755 62.5394 147.726 62.8133Z" fill="#252A34"/>
<path d="M147.99 62.9425C148.135 62.9713 148.309 62.9857 148.454 63.029C148.454 63.029 148.584 63.0722 148.555 63.0434C148.599 63.0866 148.555 63.3317 148.555 63.3894C148.555 63.7786 148.57 64.1679 148.57 64.5427C148.57 64.8166 149.005 64.8166 149.005 64.5427C149.005 64.2688 148.99 63.9949 148.99 63.721C148.99 63.4759 149.019 63.1876 148.976 62.9425C148.903 62.5532 148.425 62.5676 148.106 62.51C147.83 62.4667 147.714 62.8848 147.99 62.9425Z" fill="#252A34"/>
<path d="M124.656 58.184C126.251 63.2298 127.672 68.3333 128.948 73.48C129.021 73.754 129.441 73.6386 129.369 73.3647C128.093 68.2324 126.672 63.1289 125.077 58.0686C124.99 57.8091 124.569 57.9245 124.656 58.184Z" fill="#252A34"/>
<path d="M129.284 75.0233C129.009 80.2566 128.632 85.4754 128.124 90.6942C128.095 90.9681 128.53 90.9681 128.559 90.6942C129.052 85.4754 129.444 80.2566 129.719 75.0233C129.734 74.7494 129.299 74.7494 129.284 75.0233Z" fill="#252A34"/>
<path d="M128.428 91.1238C136.751 91.9456 145.016 93.2575 153.18 95.0452C153.455 95.1028 153.571 94.6848 153.296 94.6271C145.089 92.8394 136.78 91.5275 128.428 90.6913C128.153 90.6625 128.153 91.095 128.428 91.1238Z" fill="#252A34"/>
<path d="M124.934 58.2152C130.806 59.1811 136.693 59.974 142.609 60.5939C142.885 60.6227 142.885 60.1902 142.609 60.1614C136.737 59.5415 130.879 58.763 125.05 57.7971C124.774 57.7538 124.658 58.1719 124.934 58.2152Z" fill="#252A34"/>
<path d="M129.735 90.0029C129.706 89.9164 129.662 89.8155 129.633 89.729C129.633 89.7723 129.633 89.8011 129.633 89.8444C129.691 89.6858 129.938 89.7146 129.952 89.8732C129.981 90.0318 129.764 90.075 129.706 89.9597C129.575 89.7146 129.198 89.9309 129.329 90.1759C129.474 90.421 129.793 90.5219 130.054 90.421C130.344 90.3057 130.46 89.9741 130.358 89.7002C130.242 89.3974 129.938 89.2533 129.633 89.3398C129.488 89.383 129.372 89.4695 129.285 89.5993C129.227 89.6714 129.198 89.7579 129.213 89.8588C129.227 89.9453 129.285 90.0462 129.314 90.1327C129.416 90.3778 129.836 90.2624 129.735 90.0029Z" fill="#252A34"/>
<path d="M126.413 59.6548C126.428 59.6692 126.428 59.626 126.413 59.6548C126.413 59.626 126.413 59.6404 126.413 59.626C126.428 59.5972 126.442 59.5828 126.457 59.5828C126.457 59.5828 126.486 59.5683 126.471 59.5828C126.471 59.5828 126.471 59.5828 126.457 59.5828C126.486 59.5972 126.486 59.5972 126.471 59.5828C126.5 59.5972 126.515 59.6116 126.529 59.6404C126.515 59.6116 126.544 59.6693 126.544 59.6837C126.544 59.6693 126.529 59.6981 126.544 59.6837C126.558 59.6548 126.515 59.7125 126.544 59.6837C126.515 59.7125 126.544 59.6837 126.515 59.6981C126.544 59.6837 126.486 59.6981 126.486 59.6981C126.529 59.6981 126.457 59.6981 126.457 59.6981C126.486 59.6981 126.442 59.6837 126.442 59.6981C126.428 59.6837 126.428 59.6837 126.442 59.6981C126.428 59.6837 126.428 59.6837 126.413 59.6693C126.341 59.5828 126.181 59.5972 126.109 59.6693C126.022 59.7558 126.036 59.8855 126.109 59.972C126.254 60.1594 126.558 60.1882 126.761 60.0585C126.993 59.9143 127.037 59.626 126.906 59.3953C126.761 59.1647 126.471 59.0782 126.239 59.2223C126.007 59.3665 125.935 59.6548 126.051 59.8855C126.109 59.9864 126.254 60.0152 126.355 59.9576C126.442 59.8855 126.471 59.7557 126.413 59.6548Z" fill="#252A34"/>
<path d="M152.991 68.7529C153.455 70.6271 153.875 72.5012 154.252 74.3898C154.31 74.6637 154.731 74.5484 154.673 74.2745C154.296 72.3859 153.875 70.5117 153.411 68.6376C153.353 68.3637 152.933 68.479 152.991 68.7529Z" fill="#252A34"/>
<path d="M154.384 74.4774C154.326 76.5967 154.181 78.7303 153.949 80.8352C153.92 81.1091 154.355 81.1091 154.384 80.8352C154.601 78.7159 154.746 76.5967 154.819 74.4774C154.819 74.2035 154.384 74.2035 154.384 74.4774Z" fill="#252A34"/>
<path d="M106.142 69.1562C106.272 69.185 107.316 69.3724 108.114 68.6516C108.578 68.2335 108.723 67.7289 108.781 67.5127C109.056 67.8299 109.361 68.147 109.738 68.4642C111.492 69.9347 113.16 69.6896 114.784 70.4537C115.683 70.8718 116.886 71.7512 117.93 73.7695C118.568 73.337 119.525 72.746 120.787 72.2558C123.397 71.2322 125.383 71.3619 126.993 71.1889C128.965 70.9871 131.676 70.1798 134.881 67.5271C135.403 71.2466 135.852 75.1247 136.215 79.1614C136.853 86.4706 137.099 93.3762 137.07 99.7916C126.746 89.5702 116.437 79.3632 106.142 69.1562Z" fill="white" stroke="#252A34" stroke-width="0.785246" stroke-miterlimit="10"/>
<path d="M106.141 69.156C107.431 77.7772 108.736 86.4128 110.027 95.034C112.405 98.1624 114.768 101.305 117.146 104.434C117.523 104.693 118.089 104.996 118.814 105.154C120.684 105.544 122.192 104.607 122.569 104.362C128.456 103.05 134.343 101.738 140.23 100.44C139.012 90.0025 137.794 79.5505 136.576 69.1128C131.139 70.9581 125.687 72.8035 120.249 74.6632C120.133 74.7497 118.973 75.5859 117.596 75.1534C116.653 74.865 116.175 74.1586 116.044 73.9424C112.738 72.3277 109.432 70.7419 106.141 69.156Z" fill="#FF165D"/>
<path d="M115.639 75.2368C116.205 84.5355 116.959 93.8342 117.901 103.104C117.93 103.378 118.365 103.378 118.336 103.104C117.394 93.8342 116.64 84.5355 116.074 75.2368C116.06 74.9628 115.625 74.9484 115.639 75.2368Z" fill="#252A34"/>
<path d="M119.799 79.7333C120.191 85.8315 120.437 91.9442 120.553 98.0569C120.553 98.3308 120.988 98.3308 120.988 98.0569C120.872 91.9442 120.626 85.8315 120.234 79.7333C120.22 79.4594 119.785 79.4594 119.799 79.7333Z" fill="#252A34"/>
<path d="M124.455 77.2576C124.513 77.9063 124.571 78.5407 124.629 79.1894C124.658 79.521 124.643 79.9102 124.774 80.2274C125.122 81.0492 126.166 80.559 126.789 80.386C128.95 79.7949 131.081 79.1462 133.068 78.1082C133.314 77.9784 133.097 77.6036 132.85 77.7333C131.328 78.5262 129.704 79.0885 128.051 79.5787C127.674 79.694 127.297 79.7949 126.92 79.8958C126.586 79.9823 126.137 80.213 125.789 80.1986C124.788 80.1697 124.948 77.9207 124.89 77.2432C124.861 76.9836 124.426 76.9837 124.455 77.2576Z" fill="#252A34"/>
<path d="M124.875 77.2449C126.165 76.8556 127.456 76.4664 128.732 76.0772C130.008 75.6879 131.342 75.1401 132.69 75.0824C132.618 75.0103 132.545 74.9382 132.473 74.8662C132.458 75.9762 132.589 77.0719 132.864 78.1531C132.937 78.4271 133.357 78.3117 133.285 78.0378C133.009 76.9998 132.893 75.9474 132.908 74.8662C132.908 74.7508 132.806 74.6499 132.69 74.6499C131.385 74.7076 130.124 75.2122 128.891 75.5726C127.514 75.9907 126.136 76.4087 124.759 76.8268C124.498 76.9133 124.599 77.3314 124.875 77.2449Z" fill="#252A34"/>
<path d="M107.229 81.0945C107.215 81.2963 107.186 81.6279 107.273 82.6803C107.287 82.9254 107.345 83.4876 107.476 84.6121C107.592 85.4916 107.635 85.9385 107.737 86.4575C107.867 87.135 107.998 87.6829 108.099 88.0577C107.751 88.4325 107.766 88.9804 108.056 89.2399C108.288 89.4561 108.679 89.4994 108.926 89.3264C109.071 89.2255 109.158 89.038 109.187 88.4037C109.245 87.1927 108.955 87.0341 109.1 86.2845C109.201 85.751 109.375 85.6069 109.332 85.1311C109.317 85.0446 109.303 84.8716 109.042 84.2661C108.592 83.1849 108.447 83.1993 108.404 82.7956C108.36 82.3631 108.52 82.3055 108.476 81.6135C108.462 81.2098 108.389 80.9215 108.375 80.8494C108.273 80.4313 107.983 79.5951 107.708 79.6096C107.374 79.6384 107.244 80.9647 107.229 81.0945Z" fill="white"/>
<path d="M107.329 79.5062C107.01 80.1262 106.894 80.8326 107.083 81.5246C107.199 81.9859 107.532 82.6058 108.112 82.5049C108.605 82.4184 108.707 81.8562 108.692 81.4525C108.663 80.7749 108.359 80.155 107.895 79.6504C107.706 79.4486 107.402 79.7513 107.59 79.9532C107.837 80.2127 108.025 80.5154 108.141 80.847C108.199 81.0344 108.243 81.2507 108.257 81.4525C108.272 81.7553 108.33 81.8418 107.953 81.8418C107.605 81.8273 107.605 81.7264 107.503 81.4093C107.46 81.2363 107.431 81.0488 107.431 80.8614C107.416 80.4578 107.518 80.0829 107.706 79.7225C107.837 79.4774 107.46 79.2612 107.329 79.5062Z" fill="#252A34"/>
<path d="M107.111 81.409C106.966 82.4182 107.053 83.3985 107.459 84.3356C107.706 84.9123 108.141 85.6764 108.837 85.7917C109.359 85.8782 109.605 85.5466 109.533 85.0709C109.388 84.0473 108.648 83.2111 108.489 82.1731C108.445 81.8992 108.025 82.0145 108.068 82.2884C108.141 82.7498 108.286 83.1679 108.474 83.5859C108.561 83.7878 109.475 85.4169 108.634 85.2439C108.126 85.1429 107.735 83.9031 107.633 83.5283C107.445 82.8651 107.43 82.1875 107.532 81.5099C107.575 81.2504 107.155 81.1351 107.111 81.409Z" fill="#252A34"/>
<path d="M107.199 83.7138C107.199 84.6365 107.359 86.179 108.171 86.7845C108.432 86.9864 108.78 86.972 109.041 86.7557C109.374 86.4674 109.36 86.0205 109.316 85.6168C109.287 85.3429 108.852 85.3429 108.881 85.6168C108.896 85.7321 108.91 85.8475 108.91 85.9628C108.548 86.3809 108.301 86.4241 108.185 86.107C108.011 85.9628 107.939 85.5735 107.881 85.3573C107.707 84.8239 107.634 84.2761 107.649 83.7138C107.634 83.4255 107.199 83.4255 107.199 83.7138Z" fill="#252A34"/>
<path d="M107.547 85.2432C107.445 85.9785 107.489 86.7137 107.721 87.4201C107.866 87.8815 108.127 88.7176 108.663 88.8762C109.809 89.2078 109.475 87.0309 109.359 86.5119C109.301 86.238 108.881 86.3533 108.939 86.6272C109.026 87.0309 109.069 87.4346 109.055 87.8382C109.055 87.9824 109.04 88.1266 108.997 88.2851C108.837 88.2563 108.678 88.2275 108.518 88.1986C108.359 88.0833 108.272 87.7085 108.214 87.5355C107.938 86.8002 107.88 86.0361 107.982 85.2576C108.025 84.9693 107.59 84.9693 107.547 85.2432Z" fill="#252A34"/>
<path d="M107.909 87.9836C107.851 88.4738 107.851 89.2811 108.359 89.5695C108.881 89.8578 109.214 89.3676 109.287 88.9207C109.33 88.6468 108.91 88.5315 108.866 88.8054C108.852 88.9063 108.837 89.0793 108.765 89.1514C108.605 89.31 108.446 89.0937 108.402 88.9352C108.301 88.6324 108.301 88.2864 108.344 87.9692C108.373 87.7097 107.938 87.7097 107.909 87.9836Z" fill="#252A34"/>
<path d="M143.479 88.7201C143.29 88.2155 143 87.5379 142.609 86.7306C142.449 86.4134 142.072 85.6493 141.507 84.7267C140.492 83.0832 140.057 82.8381 139.738 82.7227C139.68 82.7083 138.853 82.42 138.563 82.7516C138.099 83.285 139.404 85.0294 139.549 85.2312C139.158 85.3033 138.549 85.4186 137.809 85.534C135.199 85.9376 134.155 85.88 132.314 86.2116C130.284 86.572 129.37 86.4855 129.182 87.0189C129.022 87.4514 129.414 87.9272 129.457 87.9992C129.907 88.5471 130.82 88.7056 131.705 88.3164C132.212 88.2876 132.72 88.2731 133.227 88.2443C133.169 88.6047 133.126 89.1237 133.271 89.7292C133.387 90.2194 133.532 90.2771 133.865 91.0844C134.257 92.0503 134.184 92.2521 134.503 92.6991C134.866 93.2036 135.315 93.4631 135.547 93.5785C136.635 94.184 137.795 93.9677 140.013 93.6794C140.782 93.5785 142.014 93.4199 143.58 93.2613C143.551 91.7476 143.508 90.2338 143.479 88.7201Z" fill="white"/>
<path d="M156.688 58.2437C156.065 59.5988 156.935 61.1558 157.471 62.2803C157.529 62.3957 158.298 66.0863 159.835 73.4965C160.299 75.7023 160.937 78.9172 161.633 82.9106C160.342 83.6891 158.921 84.4388 157.341 85.1596C152.15 87.4951 147.278 88.4178 143.464 88.7493C143.276 89.1242 142.855 90.0901 143.015 91.3299C143.218 92.9158 144.204 93.8817 144.479 94.1268C146.031 93.6799 148.249 93.0311 150.903 92.2238C163.126 88.5043 165.765 87.1635 166.577 84.828C166.896 83.8909 166.664 83.5738 165.968 79.9696C164.475 72.2134 164.721 69.3301 162.735 62.2948C161.647 58.4455 160.864 56.8164 159.574 56.5713C158.53 56.3551 157.181 57.1624 156.688 58.2437Z" fill="white" stroke="#252A34" stroke-width="0.785246" stroke-miterlimit="10"/>
<path d="M145.815 88.5325C145.38 90.2048 145.728 91.9637 146.772 93.3333C146.946 93.5495 147.323 93.3333 147.149 93.117C146.163 91.8195 145.829 90.2193 146.235 88.6478C146.308 88.3883 145.887 88.273 145.815 88.5325Z" fill="#252A34"/>
<path d="M143.682 88.6634C143.218 87.4524 142.667 86.2847 142.014 85.1602C141.478 84.2375 140.869 83.3004 139.999 82.6372C139.549 82.3057 138.81 81.8011 138.433 82.4931C138.012 83.286 138.955 84.6844 139.375 85.3332C139.52 85.5638 139.897 85.3476 139.752 85.1169C139.578 84.843 138.244 82.6228 139.172 82.6228C139.477 82.6228 139.912 83.113 140.129 83.3004C140.448 83.6031 140.724 83.9347 140.97 84.2952C141.942 85.6647 142.667 87.2217 143.276 88.7787C143.363 89.0382 143.783 88.9229 143.682 88.6634Z" fill="#252A34"/>
<path d="M139.362 85.245C137.564 85.3026 135.766 85.4612 133.968 85.7207C133.083 85.8505 132.213 86.0091 131.329 86.1821C130.662 86.3262 129.733 86.3839 129.153 86.7732C128.849 86.9894 128.646 87.3642 128.791 87.7391C128.994 88.2004 129.704 88.3013 130.139 88.3878C131.836 88.705 133.663 88.5608 135.374 88.5896C135.65 88.5896 135.65 88.1571 135.374 88.1571C134.069 88.1427 132.764 88.1427 131.459 88.0851C131.053 88.0706 130.647 88.0418 130.241 87.9697C130.081 87.9409 129.632 87.9121 129.501 87.7823C128.675 86.9606 130.778 86.7299 131.14 86.6578C133.837 86.0811 136.578 85.764 139.318 85.6775C139.637 85.6631 139.637 85.2306 139.362 85.245Z" fill="#252A34"/>
<path d="M132.881 88.5614C132.649 89.2678 133.026 89.9598 133.649 90.3203C134.577 90.8393 135.824 90.5653 136.825 90.4933C137.1 90.4644 137.1 90.0319 136.825 90.0608C136.187 90.104 135.534 90.2049 134.896 90.1761C134.084 90.1473 132.968 89.7003 133.287 88.6767C133.388 88.4028 132.968 88.2875 132.881 88.5614Z" fill="#252A34"/>
<path d="M133.329 90.2772C133.532 91.9928 135.417 92.0793 136.765 91.8919C137.041 91.8486 136.925 91.4305 136.649 91.4738C135.62 91.618 133.923 91.6612 133.764 90.2772C133.735 90.0033 133.3 90.0033 133.329 90.2772Z" fill="#252A34"/>
<path d="M133.966 91.6477C134.053 93.1759 135.474 94.012 136.895 94.113C137.983 94.1995 139.085 93.9976 140.143 93.8679C141.289 93.7381 142.449 93.6084 143.594 93.4642C143.87 93.4354 143.87 93.0029 143.594 93.0317C141.898 93.2335 140.201 93.4498 138.505 93.6228C136.982 93.7814 134.532 93.666 134.401 91.6333C134.372 91.3738 133.937 91.3738 133.966 91.6477Z" fill="#252A34"/>
<path d="M149.293 88.2021C149.148 89.6726 149.453 91.0998 150.177 92.3973C150.308 92.6424 150.685 92.4262 150.555 92.1811C149.873 90.9413 149.598 89.6149 149.728 88.2021C149.757 87.9138 149.322 87.9282 149.293 88.2021Z" fill="#252A34"/>
<path d="M152.862 86.8466C152.876 88.3748 153.224 89.8453 153.877 91.2293C153.993 91.4744 154.37 91.2581 154.254 91.013C153.63 89.6867 153.326 88.3027 153.297 86.8466C153.282 86.5583 152.847 86.5583 152.862 86.8466Z" fill="#252A34"/>
<path d="M155.878 85.8949C156.385 87.2501 156.791 88.6341 157.096 90.0469C157.154 90.3208 157.574 90.2055 157.516 89.9316C157.212 88.5187 156.806 87.1347 156.298 85.7796C156.211 85.5201 155.791 85.6354 155.878 85.8949Z" fill="#252A34"/>
<path d="M159.211 84.4369C160.052 85.7921 160.516 87.3059 160.574 88.9061C160.589 89.18 161.024 89.18 161.009 88.9061C160.951 87.2338 160.473 85.6479 159.588 84.2207C159.429 83.99 159.052 84.2063 159.211 84.4369Z" fill="#252A34"/>
<path d="M161.662 83.271C162.503 83.2565 163.257 83.5305 163.938 84.0062C164.272 84.2369 164.576 84.5108 164.866 84.7847C165.011 84.9289 165.156 85.0875 165.301 85.246C165.548 85.52 165.519 85.4335 165.867 85.5632C165.606 85.4623 165.49 85.8804 165.751 85.9813C165.78 85.9957 165.794 85.9957 165.823 86.0101C165.896 86.039 165.983 86.0101 166.041 85.9525C166.2 85.7795 166.171 85.6497 166.07 85.4623C165.765 84.9433 165.171 84.4243 164.707 84.035C163.837 83.2998 162.807 82.8096 161.662 82.824C161.372 82.8385 161.372 83.271 161.662 83.271Z" fill="#252A34"/>
<path d="M161.621 80.8205C162.476 79.8401 164.173 78.6435 165.565 79.1049C165.826 79.1914 165.942 78.7733 165.681 78.6868C164.144 78.1678 162.273 79.4076 161.316 80.5033C161.128 80.734 161.432 81.0367 161.621 80.8205Z" fill="#252A34"/>
<path d="M161.054 77.9084C161.808 76.2937 163.693 76.1928 165.259 76.1639C165.534 76.1639 165.534 75.7314 165.259 75.7314C163.548 75.7603 161.503 75.9477 160.691 77.6921C160.561 77.9516 160.938 78.1679 161.054 77.9084Z" fill="#252A34"/>
<path d="M160.33 74.2885C160.881 72.7027 162.911 71.9674 164.448 71.953C164.723 71.953 164.723 71.5205 164.448 71.5205C162.693 71.5349 160.518 72.3855 159.909 74.1732C159.822 74.4327 160.243 74.548 160.33 74.2885Z" fill="#252A34"/>
<path d="M159.591 70.453C159.808 69.6024 160.519 69.0545 161.2 68.5211C162.027 67.8724 162.825 67.3966 163.898 67.3822C164.173 67.3822 164.173 66.9497 163.898 66.9497C162.796 66.9641 161.955 67.411 161.084 68.0598C160.287 68.6653 159.446 69.314 159.17 70.3232C159.098 70.5971 159.518 70.7125 159.591 70.453Z" fill="#252A34"/>
<path d="M158.792 66.7331C159.662 65.1905 161.228 64.1669 163.011 64.0227C163.287 63.9939 163.287 63.5614 163.011 63.5902C161.083 63.7488 159.372 64.8157 158.415 66.5024C158.284 66.7619 158.661 66.9782 158.792 66.7331Z" fill="#252A34"/>
<path d="M158.212 63.1006C158.661 62.5095 159.212 62.0337 159.865 61.6733C160.169 61.5003 160.503 61.3706 160.836 61.2696C160.981 61.2264 161.126 61.1831 161.271 61.1543C161.373 61.1255 161.474 61.1111 161.576 61.1111C161.764 61.1255 161.895 61.039 161.938 60.8371C161.735 61.0246 162.04 61.3273 162.243 61.1399C162.257 61.1255 162.272 61.1111 162.286 61.0966C162.344 61.039 162.359 60.9525 162.344 60.8804C162.344 60.8516 162.33 60.8371 162.33 60.8083C162.315 60.7362 162.243 60.6786 162.185 60.6641C161.46 60.5056 160.517 60.866 159.865 61.1831C159.053 61.5724 158.4 62.1491 157.849 62.8555C157.661 63.1005 158.038 63.3168 158.212 63.1006Z" fill="#252A34"/>
<path opacity="0.28" d="M159.616 56.5576C160.008 57.956 160.515 59.9023 161.023 62.2378C161.907 66.3177 161.82 67.125 162.893 74.7659C163.778 80.9506 164.126 82.4932 162.98 84.1944C162.473 84.9585 161.313 85.6216 159.051 86.9479C155.991 88.7212 153.816 89.9899 150.554 91.0423C148.814 91.6045 146.363 92.2244 143.333 92.4984C142.767 92.5849 142.042 92.6714 141.187 92.7435C139.621 92.8732 138.301 92.8588 137.315 92.83C136.503 92.8011 135.532 92.729 134.415 92.5849C134.72 92.9309 135.227 93.421 135.952 93.7526C137.214 94.3437 138.432 94.1851 140.549 93.8968C141.317 93.7814 142.361 93.6084 143.579 93.2913C143.884 93.5796 144.188 93.868 144.507 94.1419C146.436 93.5652 149.292 92.7146 152.801 91.6622C171.666 85.9965 157.137 90.1485 159.573 89.442C160.53 89.1681 162.473 88.6059 164.546 87.2219C165.648 86.4866 166.344 85.7946 166.62 84.8431C166.837 84.079 166.678 83.4591 166.489 82.6229C166.156 81.0948 166.04 79.5378 165.648 78.024C165.01 75.53 165.402 75.7318 164.488 70.2967C163.43 63.9245 163.212 65.5248 162.603 61.7188C162.516 61.1854 162.342 60.032 161.603 58.7922C160.965 57.6821 160.182 56.9757 159.616 56.5576Z" fill="#BDBDBD"/>
<path d="M137.373 49.7791C137.62 50.4855 137.895 51.2208 138.185 51.9705C138.664 53.1959 139.171 54.3636 139.693 55.4593C140.317 55.344 141.071 55.1565 141.883 54.8394C142.521 54.5799 143.057 54.306 143.507 54.032C143.173 52.2011 142.84 50.3846 142.506 48.5537C140.795 48.9574 139.084 49.361 137.373 49.7791Z" fill="white" stroke="#252A34" stroke-width="0.523497" stroke-miterlimit="10"/>
<path d="M139.113 54.118C140.781 54.7091 142.39 53.8873 143.405 52.5754C143.579 52.3591 143.275 52.0564 143.101 52.2726C142.173 53.4692 140.766 54.2621 139.229 53.7143C138.954 53.599 138.852 54.0171 139.113 54.118Z" fill="#252A34"/>
<path d="M138.36 52.5613C140.056 52.8064 142.202 52.9506 143.145 51.1917C143.275 50.9467 142.898 50.7304 142.768 50.9755C141.927 52.5469 139.984 52.3595 138.476 52.1432C138.2 52.1 138.084 52.5181 138.36 52.5613Z" fill="#252A34"/>
<path d="M137.62 50.8892C139.374 51.3938 141.259 51.0478 142.709 49.9521C142.927 49.7791 142.709 49.4043 142.492 49.5773C141.114 50.6153 139.389 50.9468 137.736 50.4711C137.475 50.399 137.359 50.8171 137.62 50.8892Z" fill="#252A34"/>
<path d="M146.132 32.5942H153.353L154.89 46.1315L147.785 49.7789L146.132 32.5942Z" fill="#252A34" stroke="#252A34" stroke-width="0.785246" stroke-miterlimit="10"/>
<path d="M121.741 35.2921L124.105 49.7809H147.783L146.13 32.5962L121.741 35.2921Z" fill="white" stroke="#252A34" stroke-width="0.785246" stroke-miterlimit="10"/>
<path d="M122.787 36.3714L124.919 48.9283H146.132L144.639 34.0215L122.787 36.3714Z" fill="white" stroke="#252A34" stroke-width="0.785246" stroke-miterlimit="10"/>
<path d="M128.413 42.7529C128.683 42.5976 128.675 42.0805 128.395 41.5978C128.115 41.1152 127.668 40.8498 127.398 41.005C127.127 41.1603 127.135 41.6774 127.416 42.1601C127.696 42.6427 128.142 42.9081 128.413 42.7529Z" fill="#252A34" stroke="#252A34" stroke-width="0.785246" stroke-miterlimit="10"/>
<path d="M138.374 42.0585C138.644 41.9033 138.636 41.3861 138.356 40.9035C138.076 40.4208 137.629 40.1554 137.359 40.3107C137.088 40.4659 137.096 40.9831 137.377 41.4657C137.657 41.9484 138.103 42.2138 138.374 42.0585Z" fill="#252A34" stroke="#252A34" stroke-width="0.785246" stroke-miterlimit="10"/>
<path d="M131.863 44.3306C132.226 44.8208 132.617 45.2965 133.023 45.7434C133.139 45.8732 133.342 45.7867 133.386 45.6425C133.589 45.037 133.835 44.4459 134.125 43.8837C134.241 43.6386 133.879 43.4079 133.748 43.6674C133.458 44.2729 133.197 44.8928 132.965 45.5416C133.081 45.5128 133.212 45.4839 133.328 45.4407C132.936 45.0226 132.574 44.5757 132.226 44.1143C132.066 43.8981 131.689 44.1143 131.863 44.3306Z" fill="#252A34"/>
</svg>
