<svg width="11" height="13" viewBox="0 0 11 13" fill="none" xmlns="http://www.w3.org/2000/svg">
<path fill-rule="evenodd" clip-rule="evenodd" d="M0 5.1986C0 2.32368 2.40243 0 5.3084 0C8.22258 0 10.625 2.32368 10.625 5.1986C10.625 6.64731 10.0981 7.99227 9.23094 9.13223C8.27425 10.3897 7.0951 11.4853 5.76784 12.3453C5.46407 12.544 5.18992 12.559 4.85653 12.3453C3.52171 11.4853 2.34255 10.3897 1.39406 9.13223C0.52624 7.99227 0 6.64731 0 5.1986ZM3.55889 5.3604C3.55889 6.3235 4.34479 7.08097 5.3084 7.08097C6.27265 7.08097 7.06611 6.3235 7.06611 5.3604C7.06611 4.4048 6.27265 3.61045 5.3084 3.61045C4.34479 3.61045 3.55889 4.4048 3.55889 5.3604Z" fill="#FF165D"/>
</svg>
