<svg width="40" height="40" viewBox="15 11 40 40" fill="none" xmlns="http://www.w3.org/2000/svg">
<g filter="url(#filter0_d)">
<path d="M35 11C23.9544 11 15 19.9543 15 31C15 42.0457 23.9544 51 35 51C46.0457 51 55 42.0457 55 31C55 19.9543 46.0457 11 35 11V11Z" fill="white"/>
</g>
<path d="M28.1633 41.5096C28.1633 41.848 27.8909 42.1223 27.5549 42.1223H27.1643C26.8281 42.1223 26.5557 41.848 26.5557 41.5096V28.8109C26.5557 28.4726 26.8281 28.1982 27.1643 28.1982H27.5549C27.8909 28.1982 28.1633 28.4725 28.1633 28.8109V41.5096Z" fill="#252A34"/>
<path d="M32.1149 41.5096C32.1149 41.848 31.8425 42.1223 31.5064 42.1223H31.1159C30.7798 42.1223 30.5074 41.848 30.5074 41.5096V28.8109C30.5074 28.4726 30.7798 28.1982 31.1159 28.1982H31.5064C31.8425 28.1982 32.1149 28.4725 32.1149 28.8109V41.5096Z" fill="#252A34"/>
<path d="M36.0662 41.5096C36.0662 41.848 35.7939 42.1223 35.4578 42.1223H35.0672C34.7311 42.1223 34.4586 41.848 34.4586 41.5096V28.8109C34.4586 28.4726 34.7311 28.1982 35.0672 28.1982H35.4578C35.7939 28.1982 36.0662 28.4725 36.0662 28.8109V41.5096Z" fill="#252A34"/>
<path d="M40.0171 41.5096C40.0171 41.848 39.7445 42.1223 39.4084 42.1223H39.0179C38.6817 42.1223 38.4094 41.848 38.4094 41.5096V28.8109C38.4094 28.4726 38.6817 28.1982 39.0179 28.1982H39.4084C39.7445 28.1982 40.0171 28.4725 40.0171 28.8109V41.5096Z" fill="#252A34"/>
<path d="M43.9681 41.5096C43.9681 41.848 43.6957 42.1223 43.3597 42.1223H42.969C42.633 42.1223 42.3606 41.848 42.3606 41.5096V28.8109C42.3606 28.4726 42.633 28.1982 42.969 28.1982H43.3597C43.6957 28.1982 43.9681 28.4725 43.9681 28.8109V41.5096Z" fill="#252A34"/>
<path d="M24.8771 24.2255H46.4287C46.7945 24.2255 47.0909 24.522 47.0909 24.8876C47.0909 25.2533 46.7945 25.5498 46.4287 25.5498H24.8771C23.7139 25.5498 22.7711 24.6069 22.7711 23.4437V22.3925C22.7711 21.2291 23.714 20.2861 24.8774 20.2861H46.4287C46.7944 20.2861 47.0908 20.5826 47.0908 20.9483C47.0908 21.314 46.7944 21.6105 46.4287 21.6105H24.8774C24.4455 21.6105 24.0953 21.9606 24.0953 22.3925V23.4437C24.0953 23.8756 24.4452 24.2255 24.8771 24.2255H24.8771Z" fill="#252A34"/>
<defs>
<filter id="filter0_d" x="0" y="0" width="70" height="70" filterUnits="userSpaceOnUse" color-interpolation-filters="sRGB">
<feFlood flood-opacity="0" result="BackgroundImageFix"/>
<feColorMatrix in="SourceAlpha" type="matrix" values="0 0 0 0 0 0 0 0 0 0 0 0 0 0 0 0 0 0 127 0"/>
<feOffset dy="4"/>
<feGaussianBlur stdDeviation="7.5"/>
<feColorMatrix type="matrix" values="0 0 0 0 0 0 0 0 0 0 0 0 0 0 0 0 0 0 0.05 0"/>
<feBlend mode="normal" in2="BackgroundImageFix" result="effect1_dropShadow"/>
<feBlend mode="normal" in="SourceGraphic" in2="effect1_dropShadow" result="shape"/>
</filter>
</defs>
</svg>

