<svg width="64" height="64" viewBox="0 0 64 64" fill="none" xmlns="http://www.w3.org/2000/svg">
<path fill-rule="evenodd" clip-rule="evenodd" d="M32 0C14.327 0 0 14.3269 0 32C0 49.6731 14.327 64 32 64C49.6731 64 64 49.6731 64 32C64 14.3269 49.6731 0 32 0ZM21.0621 48.8157C21.0621 49.3571 20.6262 49.796 20.0886 49.796H19.4637C18.9259 49.796 18.4899 49.3571 18.4899 48.8157V28.4978C18.4899 27.9565 18.9259 27.5174 19.4637 27.5174H20.0886C20.6262 27.5174 21.0621 27.9563 21.0621 28.4978V48.8157ZM26.4101 49.796C26.9478 49.796 27.3837 49.3571 27.3837 48.8157V28.4978C27.3837 27.9563 26.9478 27.5174 26.4101 27.5174H25.7853C25.2475 27.5174 24.8118 27.9565 24.8118 28.4978V48.8157C24.8118 49.3571 25.2475 49.796 25.7853 49.796H26.4101ZM33.7062 48.8157C33.7062 49.3571 33.2706 49.796 32.7328 49.796H32.108C31.5702 49.796 31.1342 49.3571 31.1342 48.8157V28.4978C31.1342 27.9565 31.5702 27.5174 32.108 27.5174H32.7328C33.2706 27.5174 33.7062 27.9563 33.7062 28.4978V48.8157ZM39.0541 49.796C39.592 49.796 40.028 49.3571 40.028 48.8157V28.4978C40.028 27.9563 39.592 27.5174 39.0541 27.5174H38.4293C37.8915 27.5174 37.4558 27.9565 37.4558 28.4978V48.8157C37.4558 49.3571 37.8915 49.796 38.4293 49.796H39.0541ZM46.3491 48.8157C46.3491 49.3571 45.9133 49.796 45.3757 49.796H44.7507C44.213 49.796 43.7771 49.3571 43.7771 48.8157V28.4978C43.7771 27.9565 44.213 27.5174 44.7507 27.5174H45.3757C45.9133 27.5174 46.3491 27.9563 46.3491 28.4978V48.8157ZM50.2864 21.1608H15.8038H15.8037C15.1128 21.1608 14.553 20.601 14.553 19.9099V18.228C14.553 17.537 15.1131 16.9768 15.8042 16.9768H50.2862C50.8715 16.9768 51.3458 16.5024 51.3458 15.9173C51.3458 15.3322 50.8715 14.8578 50.2862 14.8578H15.8042C13.9429 14.8578 12.4342 16.3666 12.4342 18.228V19.9099C12.4342 21.771 13.9427 23.2797 15.8038 23.2797H50.2864C50.8715 23.2797 51.3458 22.8053 51.3458 22.2202C51.3458 21.6352 50.8715 21.1608 50.2864 21.1608Z" fill="white"/>
</svg>
